<svg width="24" height="29" viewBox="0 0 24 29" fill="none" xmlns="http://www.w3.org/2000/svg">
<path d="M12 25.4125C14.8806 22.7681 17.0174 20.3656 18.4104 18.2052C19.8035 16.0448 20.5 14.1264 20.5 12.45C20.5 9.8764 19.6795 7.76911 18.0386 6.12813C16.3976 4.48716 14.3847 3.66668 12 3.66668C9.6153 3.66668 7.60245 4.48716 5.96148 6.12813C4.32051 7.76911 3.50002 9.8764 3.50002 12.45C3.50002 14.1264 4.19655 16.0448 5.5896 18.2052C6.98266 20.3656 9.11946 22.7681 12 25.4125ZM12 28.2104C11.6695 28.2104 11.3389 28.1514 11.0084 28.0333C10.6778 27.9153 10.3827 27.7382 10.1229 27.5021C8.58821 26.0854 7.23058 24.7042 6.05002 23.3583C4.86946 22.0125 3.8837 20.708 3.09273 19.4448C2.30176 18.1816 1.69967 16.9656 1.28648 15.7969C0.873284 14.6281 0.666687 13.5125 0.666687 12.45C0.666687 8.90834 1.80592 6.08682 4.0844 3.98543C6.36287 1.88404 9.00141 0.833344 12 0.833344C14.9986 0.833344 17.6372 1.88404 19.9156 3.98543C22.1941 6.08682 23.3334 8.90834 23.3334 12.45C23.3334 13.5125 23.1268 14.6281 22.7136 15.7969C22.3004 16.9656 21.6983 18.1816 20.9073 19.4448C20.1163 20.708 19.1306 22.0125 17.95 23.3583C16.7695 24.7042 15.4118 26.0854 13.8771 27.5021C13.6174 27.7382 13.3222 27.9153 12.9917 28.0333C12.6611 28.1514 12.3306 28.2104 12 28.2104ZM12 15C12.7792 15 13.4462 14.7226 14.0011 14.1677C14.5559 13.6129 14.8334 12.9458 14.8334 12.1667C14.8334 11.3875 14.5559 10.7205 14.0011 10.1656C13.4462 9.61077 12.7792 9.33334 12 9.33334C11.2209 9.33334 10.5538 9.61077 9.99898 10.1656C9.44412 10.7205 9.16669 11.3875 9.16669 12.1667C9.16669 12.9458 9.44412 13.6129 9.99898 14.1677C10.5538 14.7226 11.2209 15 12 15Z" fill="#BB7DC5"/>
</svg>
