<svg width="27" height="27" viewBox="0 0 27 27" fill="none" xmlns="http://www.w3.org/2000/svg">
<circle cx="13.5" cy="13.5" r="13.5" fill="#5C8D96"/>
<path d="M19.5517 8.99269C19.0628 9.25825 18.5454 9.43321 18.0161 9.51203C18.5724 9.10484 18.9908 8.45793 19.1927 7.69264C18.6667 8.07709 18.0923 8.34683 17.4939 8.49032C17.2419 8.16023 16.9389 7.89763 16.6032 7.71849C16.2675 7.53935 15.9061 7.4474 15.5411 7.44825C14.0634 7.44825 12.8674 8.92141 12.8674 10.7374C12.8664 10.99 12.8896 11.2419 12.9364 11.4876C11.8767 11.4255 10.8391 11.0876 9.88988 10.4955C8.94066 9.90338 8.10076 9.07014 7.42392 8.04905C7.18647 8.54943 7.06089 9.12034 7.06032 9.70212C7.06032 10.8426 7.53635 11.8508 8.25514 12.4414C7.82928 12.4288 7.41214 12.2879 7.03913 12.0307V12.0714C7.03913 13.6668 7.96241 14.994 9.18439 15.2961C8.9546 15.3726 8.7178 15.4114 8.47999 15.4115C8.31124 15.4118 8.14288 15.3914 7.97735 15.3504C8.31706 16.6572 9.30578 17.6076 10.477 17.6348C9.52529 18.5516 8.35687 19.0471 7.15536 19.0435C6.94209 19.0431 6.72901 19.0272 6.51721 18.996C7.73951 19.9716 9.16035 20.4876 10.6106 20.4827C15.5354 20.4827 18.226 15.4692 18.226 11.121C18.226 10.9784 18.223 10.8358 18.2176 10.6967C18.7398 10.2323 19.1916 9.65532 19.5517 8.99269Z" fill="white"/>
</svg>
