<svg width="161" height="69" viewBox="0 0 161 69" fill="none" xmlns="http://www.w3.org/2000/svg">
<g opacity="0.3">
<path d="M37.7756 56.2626C37.7756 56.5524 43.214 56.787 49.9328 56.787C56.6384 56.787 62.09 56.5524 62.09 56.2626C62.09 55.9728 56.6516 55.7382 49.9328 55.7382C43.214 55.7382 37.7756 55.9728 37.7756 56.2626Z" fill="black"/>
</g>
<path d="M40.2889 48.7911C47.7955 47.149 52.6076 39.4559 51.0369 31.6081C49.4663 23.7602 42.1076 18.7294 34.601 20.3714C27.0943 22.0135 22.2822 29.7066 23.8529 37.5545C25.4236 45.4023 32.7822 50.4331 40.2889 48.7911Z" fill="#45BBC6"/>
<mask id="mask0_0_52" style="mask-type:luminance" maskUnits="userSpaceOnUse" x="24" y="20" width="27" height="29">
<path d="M38.9966 48.3089C46.2763 47.3758 51.454 40.4498 50.5615 32.8393C49.669 25.2287 43.0441 19.8156 35.7645 20.7487C28.4849 21.6818 23.3071 28.6078 24.1996 36.2183C25.0922 43.8289 31.717 49.242 38.9966 48.3089Z" fill="white"/>
</mask>
<g mask="url(#mask0_0_52)">
<path d="M64.3472 29.3526C64.5056 29.4492 64.7036 29.5182 64.8224 29.6424C65.1656 30.0012 65.4824 30.3738 65.7992 30.7602C65.9444 30.9258 66.0632 30.9534 66.1952 30.774C66.3932 30.4842 66.578 30.1668 66.8024 29.8908C67.2248 29.3802 67.2116 28.6626 66.6836 28.2624C66.2084 27.9036 65.72 27.5724 65.2448 27.2412C65.0732 27.1308 64.9676 27.0204 65.2448 26.91C65.324 26.8824 65.4032 26.8134 65.4956 26.7996C66.1292 26.7444 66.7628 26.6754 67.3964 26.6478C67.832 26.6202 68.228 26.5098 68.4656 26.1372C68.7824 25.668 69.0332 25.1574 69.284 24.6468C69.4028 24.3846 69.2312 23.9982 68.9672 23.9016C68.7296 23.8188 68.4788 23.736 68.228 23.736C67.502 23.7084 66.7892 23.7222 66.0632 23.7084C65.72 23.6946 65.3768 23.6256 65.0204 23.6256C64.4132 23.6256 63.7928 23.6946 63.1856 23.6946C62.4596 23.6946 61.7336 23.6808 61.0076 23.6118C60.4796 23.5566 59.978 23.3772 59.45 23.3082C58.6316 23.184 57.8 23.2116 57.0212 22.8666C56.8364 22.7838 56.5988 22.7148 56.4272 22.7838C55.8992 23.0046 55.358 23.2392 54.8696 23.5566C54.0248 24.1086 53.1404 24.4674 52.124 24.357C51.6488 24.3018 51.1868 24.2604 50.7116 24.1914C50.21 24.1086 49.7216 23.9706 49.22 23.9016C48.2828 23.7774 47.504 24.2466 46.7384 24.7296C46.4084 24.9366 46.3952 25.1574 46.58 25.5162C46.7384 25.806 46.8968 26.082 47.042 26.3718C47.2268 26.7306 47.372 26.7582 47.7284 26.5926C48.1244 26.4132 48.5204 26.2614 48.9296 26.1096C49.1936 26.013 49.3388 26.2062 49.3916 26.4408C49.4972 27.0066 49.1672 27.393 48.6128 27.393C47.504 27.393 46.3952 27.3792 45.2996 27.3792C45.128 27.3792 44.9432 27.4344 44.7848 27.5034C44.5604 27.6 44.3492 27.738 44.1116 27.8346C43.8476 27.9312 43.6496 28.0692 43.676 28.3866C43.7156 28.704 43.7552 29.0214 43.8344 29.3388C44.0324 30.1392 44.5604 30.4566 45.2732 30.1392C45.9332 29.8494 46.5668 29.4906 47.2268 29.187C47.438 29.0904 47.7152 28.98 47.8868 29.0628C48.4544 29.3112 49.0484 29.4492 49.6556 29.4354C49.9988 29.4354 50.3552 29.4216 50.6984 29.4354C51.1472 29.463 51.3188 29.8218 51.068 30.2082C50.9888 30.3186 50.8964 30.4152 50.7908 30.5118C50.1836 31.119 49.5236 31.6296 48.6128 31.464C48.164 31.3812 47.7152 31.2846 47.2796 31.1466C46.4348 30.8568 45.5636 30.6636 44.666 30.7464C44.1644 30.7878 43.7552 31.05 43.4252 31.4226C43.0556 31.8504 42.752 32.3334 42.3956 32.7612C41.4716 33.8376 41.5244 34.1688 42.4484 35.1072C43.1612 35.8386 43.9796 36.432 44.996 36.5976C45.5372 36.6942 46.0916 36.7218 46.646 36.7632C46.8572 36.777 46.9628 36.8322 46.9232 37.0944C46.8572 37.536 46.778 37.9776 46.778 38.4192C46.778 39.1506 46.844 39.882 46.8836 40.6272C46.9232 41.2206 47.1872 41.6898 47.5832 42.1176C47.9132 42.4626 48.2168 42.849 48.5204 43.2216C48.6656 43.401 48.7844 43.5942 48.9296 43.7736C49.0748 43.953 49.2728 43.9806 49.4312 43.815C49.7612 43.4562 50.1704 43.1388 50.3684 42.711C50.8964 41.5656 51.3716 40.3926 51.7808 39.2058C52.124 38.2122 52.6124 37.4118 53.51 36.8736C53.9588 36.6114 54.368 36.2388 54.7508 35.88C55.0676 35.5902 55.0148 35.4384 54.6452 35.259C54.5132 35.2038 54.3548 35.1624 54.236 35.0934C53.0876 34.4172 52.1372 33.5064 51.3056 32.4576C51.1736 32.292 51.134 32.0574 51.0548 31.8504C51.4904 31.6986 51.6488 31.9746 51.7544 32.2092C52.2692 33.2304 53.1008 33.7824 54.1172 34.0998C54.4208 34.1964 54.7244 34.1412 54.9488 33.8514C55.3316 33.3546 55.3184 33.1614 54.9356 32.6784C54.566 32.2092 54.2492 31.6986 53.906 31.2156C53.906 31.2156 53.9192 31.188 53.9324 31.1328C54.2624 31.257 54.6056 31.3674 54.9356 31.5054C55.5164 31.7676 56.15 31.9884 56.5592 32.5266C56.9948 33.1062 57.4304 33.6858 57.8528 34.2792C58.0244 34.5276 58.1564 34.8174 58.3544 35.0244C58.46 35.1348 58.6976 35.19 58.856 35.1486C58.988 35.1072 59.1596 34.9278 59.186 34.776C59.2784 34.4172 59.3048 34.0446 59.3444 33.672C59.45 32.637 60.0704 32.3196 60.902 32.8716C61.2056 33.0786 61.4564 33.3408 61.7336 33.5892C62.1824 33.9894 62.5916 34.4448 63.0932 34.7622C63.7928 35.2038 63.9248 35.1348 64.3736 34.5828C64.73 34.1412 64.7432 33.8652 64.4528 33.4098C64.3472 33.258 64.2548 33.1062 64.1492 32.9544C63.8324 32.4438 63.7268 31.8918 63.8456 31.3122C64.004 30.6774 64.1624 30.084 64.3472 29.3526Z" fill="#CCE4C4"/>
<path d="M29.1691 32.5266C29.8951 32.4714 30.5815 32.4162 31.2811 32.361C31.8487 32.3196 32.2843 32.0574 32.5747 31.5192C32.7199 31.2432 32.8783 30.9672 33.0763 30.7326C33.7627 29.877 34.5943 29.325 35.7163 29.4216C36.3103 29.463 36.7591 29.2008 37.0627 28.6902C37.2475 28.3728 37.4323 28.0416 37.5511 27.6966C37.8019 26.8962 37.6171 26.4684 36.8779 26.0406C36.7327 25.9578 36.5743 25.8336 36.4159 25.8336C35.8747 25.806 35.3203 25.7508 34.7923 25.8474C34.4227 25.9026 34.2247 25.9578 34.0135 25.6128C33.8551 25.3644 33.9079 25.1298 34.1059 24.909C34.1719 24.84 34.1983 24.633 34.1851 24.6192C33.8023 24.4674 33.5647 24.15 33.3403 23.8188C33.3139 23.7774 33.2479 23.736 33.1951 23.736C32.3371 23.7084 31.4923 23.598 30.6871 24.2052C29.9215 24.7848 29.0107 24.84 28.1395 24.3294C27.5719 23.9982 27.0835 23.5428 26.4235 23.3772C25.7371 23.2116 25.1299 23.2254 24.5359 23.6808C23.9815 24.1086 23.4139 24.5364 22.7935 24.8538C22.3447 25.0884 22.3711 25.6542 22.7011 25.8888C23.3347 26.358 24.0211 26.703 24.8131 26.634C25.2355 26.6064 25.6579 26.5236 26.0935 26.5098C26.2387 26.5098 26.4763 26.6478 26.5027 26.7582C26.5555 26.9514 26.5027 27.2136 26.4235 27.4068C26.2651 27.7932 26.0539 28.152 25.8559 28.5246C25.4335 29.3112 25.1431 30.1116 25.2619 31.05C25.3147 31.4502 25.2487 31.878 25.2883 32.292C25.3279 32.7888 25.4335 33.327 25.8823 33.5892C26.3707 33.879 26.9383 33.9618 27.5191 33.8652C28.1923 33.7548 28.8787 33.6858 29.4991 34.0998C30.0535 34.4586 30.2911 35.0796 30.5815 35.6592C30.8323 36.156 30.7795 36.5838 30.3307 36.9288C30.2515 36.984 30.2251 37.1082 30.1591 37.191C29.9611 37.4256 30.0667 37.5912 30.2779 37.7292C30.7267 38.0328 31.1755 38.3226 31.6111 38.6262C32.1127 38.9712 32.5219 39.4266 32.6803 40.0338C32.9707 41.2068 32.8519 42.4074 32.7463 43.608C32.6803 44.3946 32.7991 45.126 33.2347 45.7884C33.6571 46.4232 34.2511 46.7958 34.9111 47.0718C35.6503 47.3754 36.1651 47.0166 36.3763 46.437C36.5875 45.8436 36.7327 45.2088 36.8911 44.6016C37.0363 44.0358 37.2211 43.5252 37.6831 43.1388C37.9603 42.9042 38.2375 42.6282 38.4091 42.3108C39.0427 41.124 39.2803 39.813 39.4255 38.4882C39.4519 38.2674 39.4783 38.0328 39.5179 37.812C39.6235 37.3014 39.4123 36.7494 39.0163 36.6114C38.4883 36.432 37.9339 36.3216 37.4059 36.1422C36.9439 35.9904 36.4819 35.8386 36.0595 35.6178C35.5447 35.3556 35.0827 34.914 34.5547 34.7208C33.6175 34.3896 32.6275 34.224 31.6771 33.9618C31.0831 33.7962 30.4759 33.603 29.9083 33.3408C29.5387 33.189 29.1955 32.9682 29.1691 32.5266Z" fill="#CCE4C4"/>
<path d="M37.7228 23.1978C37.8284 23.391 37.9076 23.5014 37.9604 23.6118C38.1188 23.9292 38.264 24.2604 38.4092 24.5778C38.5148 24.8262 38.5016 25.185 38.792 25.2816C39.3332 25.461 39.9008 25.4472 40.4156 25.2402C41.0756 24.978 41.7092 24.633 42.3428 24.2742C42.8444 23.9982 43.346 23.7084 43.6364 23.1426C43.7288 22.9632 43.7816 22.8252 43.5836 22.6458C42.884 22.0386 42.1184 21.5556 41.234 21.39C40.1648 21.183 39.1616 21.4314 38.3564 22.2594C38.1188 22.5492 37.9472 22.8804 37.7228 23.1978Z" fill="#CCE4C4"/>
<g opacity="0.5">
<path d="M64.3472 29.3526C64.1624 30.084 64.004 30.6774 63.872 31.2846C63.7532 31.8642 63.8588 32.43 64.1756 32.9268C64.268 33.0786 64.3736 33.2304 64.4792 33.3822C64.7828 33.8514 64.7696 34.1136 64.4 34.5552C63.9512 35.1072 63.806 35.1762 63.1196 34.7346C62.618 34.4172 62.2088 33.9618 61.76 33.5616C61.4828 33.327 61.232 33.051 60.9284 32.844C60.0968 32.2782 59.4632 32.6094 59.3708 33.6444C59.3312 34.017 59.3048 34.3896 59.2124 34.7484C59.1728 34.9002 59.0144 35.0796 58.8824 35.121C58.7372 35.1624 58.4864 35.1072 58.3808 34.9968C58.1828 34.7898 58.0508 34.5 57.8792 34.2516C57.4568 33.6582 57.0344 33.0786 56.5856 32.499C56.1632 31.947 55.5428 31.74 54.962 31.4778C54.632 31.326 54.302 31.2294 53.9588 31.1052C53.9324 31.1742 53.9324 31.188 53.9324 31.188C54.2756 31.6848 54.5924 32.1816 54.962 32.6508C55.3448 33.12 55.358 33.327 54.9752 33.8238C54.7508 34.1136 54.4472 34.1688 54.1436 34.0722C53.1272 33.7548 52.2956 33.2028 51.7808 32.1816C51.662 31.9608 51.5168 31.6848 51.0812 31.8228C51.1604 32.0298 51.2 32.2782 51.332 32.43C52.1636 33.4926 53.114 34.3896 54.2624 35.0658C54.3944 35.1348 54.5396 35.1762 54.6716 35.2314C55.0412 35.397 55.094 35.5488 54.7772 35.8524C54.3944 36.2112 53.9852 36.5838 53.5364 36.846C52.6388 37.3842 52.1504 38.1846 51.8072 39.1782C51.398 40.365 50.9228 41.538 50.3948 42.6834C50.1968 43.1112 49.7876 43.4286 49.4576 43.7874C49.2992 43.953 49.1012 43.9254 48.956 43.746C48.8108 43.5666 48.692 43.3734 48.5468 43.194C48.2432 42.8214 47.9396 42.4488 47.6096 42.09C47.2136 41.676 46.9364 41.193 46.91 40.5996C46.8704 39.8682 46.8044 39.1368 46.8044 38.3916C46.8044 37.95 46.8836 37.5084 46.9496 37.0668C46.9892 36.8046 46.8968 36.7494 46.6724 36.7356C46.118 36.6942 45.5636 36.6666 45.0224 36.57C44.006 36.3906 43.2008 35.811 42.4748 35.0796C41.5508 34.1274 41.5112 33.81 42.422 32.7336C42.7916 32.3058 43.0952 31.8228 43.4516 31.395C43.7816 31.0086 44.1776 30.7602 44.6924 30.7188C45.59 30.636 46.448 30.8292 47.306 31.119C47.7416 31.2708 48.1904 31.3536 48.6392 31.4364C49.55 31.602 50.21 31.0914 50.8172 30.4842C50.9096 30.3876 51.0152 30.291 51.0944 30.1806C51.3452 29.7942 51.1736 29.4354 50.7248 29.4078C50.3816 29.3802 50.0252 29.394 49.682 29.4078C49.0616 29.4216 48.4808 29.2836 47.9132 29.0352C47.7416 28.9524 47.4512 29.0628 47.2532 29.1594C46.5932 29.463 45.9596 29.8218 45.2996 30.1116C44.5868 30.4152 44.0588 30.1116 43.8608 29.3112C43.7816 29.0076 43.7288 28.6764 43.7024 28.359C43.6628 28.0416 43.874 27.9036 44.138 27.807C44.3624 27.7242 44.5736 27.5724 44.8112 27.4758C44.9696 27.4068 45.1544 27.3516 45.326 27.3516C46.4348 27.3516 47.5436 27.3654 48.6392 27.3654C49.2068 27.3654 49.5236 26.9652 49.418 26.4132C49.3784 26.1924 49.22 25.9992 48.956 26.082C48.5468 26.22 48.1508 26.3718 47.7548 26.565C47.3984 26.7306 47.2532 26.703 47.0684 26.3442C46.91 26.0544 46.7648 25.7646 46.6064 25.4886C46.4216 25.1436 46.4348 24.909 46.7648 24.702C47.5304 24.2328 48.296 23.7498 49.2464 23.874C49.748 23.943 50.2364 24.081 50.738 24.1638C51.2 24.2328 51.6752 24.2742 52.1504 24.3294C53.1668 24.4398 54.0512 24.081 54.896 23.529C55.3844 23.2116 55.9124 22.977 56.4536 22.7562C56.612 22.6872 56.8628 22.77 57.0476 22.839C57.8264 23.184 58.6712 23.1564 59.4764 23.2806C59.9912 23.3496 60.506 23.529 61.034 23.5842C61.76 23.6532 62.486 23.667 63.212 23.667C63.8192 23.667 64.4396 23.6118 65.0468 23.598C65.39 23.598 65.7332 23.6808 66.0896 23.6808C66.8156 23.6946 67.5284 23.6808 68.2544 23.7084C68.5052 23.7222 68.756 23.7912 68.9936 23.874C69.2576 23.9706 69.4292 24.357 69.3104 24.6192C69.0728 25.1298 68.8088 25.6404 68.492 26.1096C68.2544 26.4822 67.8452 26.5926 67.4228 26.6202C66.7892 26.6478 66.1556 26.7168 65.522 26.772C65.4428 26.7858 65.3636 26.841 65.2712 26.8824C64.994 26.9928 65.0996 27.1032 65.2712 27.2136C65.7596 27.5586 66.248 27.876 66.71 28.2348C67.2248 28.635 67.2512 29.3526 66.8288 29.8632C66.6044 30.1392 66.4328 30.4566 66.2216 30.7464C66.0896 30.9258 65.9708 30.912 65.8256 30.7326C65.5088 30.3462 65.192 29.9736 64.8488 29.6148C64.7036 29.5182 64.5056 29.4492 64.3472 29.3526Z" fill="#CCE4C4"/>
</g>
<g opacity="0.5">
<path d="M29.1692 32.5266C29.1956 32.9682 29.5388 33.189 29.8424 33.327C30.41 33.5892 31.004 33.7824 31.6112 33.948C32.5748 34.224 33.5516 34.3896 34.4888 34.707C35.03 34.8864 35.4788 35.328 35.9936 35.604C36.4292 35.8248 36.8912 35.9904 37.34 36.1284C37.868 36.3078 38.4224 36.4182 38.9504 36.5976C39.3596 36.7356 39.5576 37.2876 39.452 37.7982C39.4124 38.019 39.386 38.2536 39.3596 38.4744C39.2276 39.813 38.99 41.124 38.3432 42.297C38.1716 42.6144 37.8944 42.8904 37.6172 43.125C37.1552 43.5114 36.9704 44.022 36.8252 44.5878C36.6668 45.2088 36.5216 45.8298 36.3104 46.4232C36.0992 47.0028 35.5844 47.3616 34.8452 47.058C34.1852 46.782 33.5912 46.4094 33.1688 45.7746C32.7332 45.1122 32.6144 44.3808 32.6804 43.5942C32.786 42.3936 32.9048 41.193 32.6144 40.02C32.4692 39.4128 32.0468 38.9574 31.5452 38.6124C31.1096 38.3088 30.6608 38.0052 30.212 37.7154C30.0008 37.5774 29.8952 37.4118 30.0932 37.1772C30.1592 37.0944 30.1856 36.984 30.2648 36.915C30.7136 36.57 30.7664 36.156 30.5156 35.6454C30.2252 35.0658 29.9876 34.4448 29.4332 34.086C28.8128 33.6858 28.1264 33.7548 27.4532 33.8514C26.8724 33.948 26.318 33.8514 25.8164 33.5754C25.3676 33.3132 25.262 32.7888 25.2224 32.2782C25.196 31.8642 25.2488 31.4502 25.196 31.0362C25.0772 30.0978 25.3808 29.2974 25.79 28.5108C25.988 28.1382 26.186 27.7794 26.3576 27.393C26.4368 27.1998 26.4896 26.9376 26.4368 26.7444C26.4104 26.634 26.1728 26.496 26.0276 26.496C25.6052 26.496 25.1828 26.5788 24.7472 26.6202C23.942 26.6754 23.2688 26.3304 22.6352 25.875C22.3052 25.6404 22.2788 25.0746 22.7276 24.84C23.348 24.5226 23.9156 24.0948 24.47 23.667C25.064 23.1978 25.6712 23.1978 26.3576 23.3634C27.0176 23.529 27.5192 23.9706 28.0736 24.3156C28.9448 24.84 29.8556 24.771 30.6212 24.1914C31.4264 23.5842 32.258 23.7084 33.1292 23.7222C33.182 23.7222 33.248 23.7636 33.2744 23.805C33.4988 24.1362 33.7364 24.4536 34.1192 24.6054C34.1324 24.6054 34.0928 24.8262 34.04 24.8952C33.842 25.116 33.7892 25.3506 33.9476 25.599C34.1588 25.944 34.3568 25.8888 34.7264 25.8336C35.2544 25.7508 35.8088 25.7922 36.35 25.8198C36.5084 25.8336 36.6668 25.944 36.812 26.0268C37.5512 26.4546 37.736 26.8686 37.4852 27.6828C37.3796 28.0278 37.1948 28.3728 36.9968 28.6764C36.6932 29.187 36.2444 29.4492 35.6504 29.4078C34.5284 29.325 33.6836 29.8632 33.0104 30.7188C32.8256 30.9534 32.6672 31.2294 32.5088 31.5054C32.2184 32.0298 31.7828 32.292 31.2152 32.3472C30.5948 32.4162 29.8952 32.4714 29.1692 32.5266Z" fill="#CCE4C4"/>
</g>
<path d="M37.7228 23.1978C37.9472 22.8804 38.1188 22.5492 38.3696 22.287C39.1748 21.459 40.178 21.2106 41.2472 21.4176C42.1316 21.5832 42.8972 22.0662 43.5968 22.6734C43.7948 22.839 43.7288 22.9908 43.6496 23.1702C43.3724 23.736 42.8576 24.0258 42.356 24.3018C41.7356 24.6606 41.102 25.0056 40.4288 25.2678C39.914 25.461 39.3464 25.4886 38.8052 25.3092C38.5016 25.2126 38.528 24.8538 38.4224 24.6054C38.2772 24.2742 38.132 23.9568 37.9736 23.6394C37.9076 23.5014 37.8416 23.391 37.7228 23.1978Z" fill="#CCE4C4"/>
</g>
<path d="M50.4608 47.5134L52.4276 48.9624L54.0512 46.5336L52.2428 45.2088C51.7148 46.023 51.1076 46.782 50.4608 47.5134Z" fill="#CCE4C4"/>
<path d="M55.4107 34.5828C55.4107 24.219 47.3455 15.801 37.4455 15.801C34.2379 15.801 31.2283 16.698 28.6279 18.2436L29.4595 20.2584C31.8091 18.8232 34.5283 17.9814 37.4455 17.9814C46.1971 17.9814 53.3251 25.4334 53.3251 34.5828C53.3251 43.7322 46.1971 51.1842 37.4455 51.1842C28.6939 51.1842 21.5659 43.7322 21.5659 34.5828C21.5659 31.9332 22.1731 29.4492 23.2291 27.2274L21.2491 26.5098C20.1271 28.9662 19.4803 31.6986 19.4803 34.5828C19.4803 44.9466 27.5455 53.3646 37.4455 53.3646C42.5671 53.3646 47.1871 51.1014 50.4607 47.4996C51.1075 46.782 51.7147 46.023 52.2559 45.195C54.2359 42.1866 55.4107 38.5296 55.4107 34.5828Z" fill="#626C5F"/>
<g opacity="0.3">
<path d="M30.7928 26.1786C30.5156 25.8612 29.75 26.1234 29.0768 26.7582C28.4036 27.393 28.0868 28.1658 28.3508 28.4832C28.628 28.8006 29.3936 28.5384 30.0668 27.9036C30.74 27.2688 31.07 26.496 30.7928 26.1786Z" fill="#1E4C4C"/>
</g>
<path d="M29.1164 27.1308C29.1164 27.1308 22.952 26.082 21.5132 24.4122C20.0744 22.7562 20.1932 20.1894 21.7772 18.6714C23.3612 17.1672 25.8164 17.2914 27.2684 18.9474C28.7072 20.6172 29.1164 27.1308 29.1164 27.1308ZM25.4732 20.2308C24.8528 19.5132 23.7836 19.458 23.084 20.1066C22.3976 20.7552 22.3448 21.873 22.9652 22.6044C23.5856 23.322 24.6548 23.3772 25.3544 22.7286C26.054 22.0662 26.1068 20.9484 25.4732 20.2308Z" fill="#FCC020"/>
<path d="M52.0448 49.5282L61.4696 56.442L61.826 56.0832C62.618 55.269 63.2516 54.303 63.7136 53.2404L63.8852 52.854L54.4604 45.9402L52.0448 49.5282Z" fill="#1A7C7B"/>
<path opacity="0.2" d="M51.3584 34.8036C51.3584 26.6754 45.062 20.0928 37.2872 20.0928C37.2872 33.7548 37.2872 35.3556 37.2872 49.1004C45.062 49.0866 51.3584 42.918 51.3584 34.8036Z" fill="#1E4C4C"/>
<path d="M58.8692 23.184C58.8692 23.0046 58.724 22.8528 58.5524 22.8528C58.3808 22.8528 58.2356 23.0046 58.2356 23.184C58.2356 23.3634 58.3808 23.5152 58.5524 23.5152C58.7372 23.5014 58.8692 23.3634 58.8692 23.184Z" fill="white"/>
<path d="M34.568 12.282C34.568 12.1578 34.4756 12.0612 34.3568 12.0612C34.238 12.0612 34.1456 12.1578 34.1456 12.282C34.1456 12.4062 34.238 12.5028 34.3568 12.5028C34.4756 12.5028 34.568 12.4062 34.568 12.282Z" fill="white"/>
<path d="M13.2764 26.9376C13.2764 26.772 13.1444 26.634 12.986 26.634C12.8276 26.634 12.6956 26.772 12.6956 26.9376C12.6956 27.1032 12.8276 27.2412 12.986 27.2412C13.1444 27.2412 13.2764 27.1032 13.2764 26.9376Z" fill="white"/>
<path d="M15.5996 33.7962C15.5996 33.6582 15.494 33.5478 15.362 33.5478C15.23 33.5478 15.1244 33.6582 15.1244 33.7962C15.1244 33.9342 15.23 34.0446 15.362 34.0446C15.4808 34.0446 15.5996 33.9342 15.5996 33.7962Z" fill="white"/>
<path d="M22.5428 50.6736C22.5428 50.5356 22.4372 50.4252 22.3052 50.4252C22.1732 50.4252 22.0676 50.5356 22.0676 50.6736C22.0676 50.8116 22.1732 50.922 22.3052 50.922C22.4372 50.922 22.5428 50.8116 22.5428 50.6736Z" fill="white"/>
<path d="M10.9928 41.0136C10.9928 40.8756 10.8872 40.7652 10.7552 40.7652C10.6232 40.7652 10.5176 40.8756 10.5176 41.0136C10.5176 41.1516 10.6232 41.262 10.7552 41.262C10.874 41.262 10.9928 41.1516 10.9928 41.0136Z" fill="white"/>
<path d="M60.0572 36.3906C60.0572 36.2526 59.9516 36.1422 59.8196 36.1422C59.6876 36.1422 59.582 36.2526 59.582 36.3906C59.582 36.5286 59.6876 36.639 59.8196 36.639C59.9516 36.639 60.0572 36.5286 60.0572 36.3906Z" fill="white"/>
<path d="M92.47 46H87.07V32.65H82.24V28.9H97.3V32.65H92.47V46ZM107.307 31.9C107.567 31.9 107.837 31.93 108.117 31.99C108.417 32.05 108.637 32.12 108.777 32.2C108.777 32.64 108.727 33.37 108.627 34.39C108.527 35.39 108.437 36.1 108.357 36.52C108.157 36.5 107.787 36.49 107.247 36.49C105.987 36.49 104.867 36.56 103.887 36.7V46H98.7573V32.2H103.047L103.647 34.42H103.677C104.257 33.66 104.877 33.05 105.537 32.59C106.197 32.13 106.787 31.9 107.307 31.9ZM117.436 46L116.956 44.11C116.036 45.61 114.756 46.36 113.116 46.36C111.776 46.36 110.676 45.99 109.816 45.25C108.976 44.49 108.556 43.43 108.556 42.07C108.556 41.23 108.796 40.5 109.276 39.88C109.776 39.24 110.456 38.79 111.316 38.53C112.436 38.21 114.166 38.03 116.506 37.99C116.506 36.67 116.446 35.97 116.326 35.89C116.226 35.81 115.906 35.77 115.366 35.77C115.026 35.77 114.556 35.79 113.956 35.83C112.996 35.87 111.696 35.98 110.056 36.16C109.896 35.08 109.776 33.92 109.696 32.68C110.756 32.46 111.866 32.28 113.026 32.14C114.186 31.98 115.226 31.9 116.146 31.9C117.746 31.9 118.946 32.17 119.746 32.71C120.546 33.23 121.066 33.92 121.306 34.78C121.546 35.64 121.656 36.73 121.636 38.05L121.606 42.46L121.696 46H117.436ZM114.856 43C115.376 43 115.926 42.9 116.506 42.7V40.48H116.266C114.786 40.48 113.966 40.56 113.806 40.72C113.706 40.82 113.626 40.97 113.566 41.17C113.526 41.37 113.506 41.56 113.506 41.74C113.506 42.22 113.616 42.55 113.836 42.73C114.056 42.91 114.396 43 114.856 43ZM132.833 32.2H138.203L134.003 46H126.893L122.693 32.2H128.063L130.313 42.79H130.613L132.833 32.2ZM147.762 42.4C148.262 42.4 149.192 42.35 150.552 42.25C150.732 42.25 151.062 42.23 151.542 42.19L151.992 45.28C150.452 46 148.452 46.36 145.992 46.36C143.692 46.36 141.922 45.78 140.682 44.62C139.462 43.46 138.852 41.71 138.852 39.37C138.852 38.17 139.002 37.01 139.302 35.89C139.622 34.77 139.982 33.99 140.382 33.55C140.802 33.11 141.582 32.73 142.722 32.41C143.862 32.09 144.992 31.93 146.112 31.93C147.912 31.93 149.262 32.25 150.162 32.89C151.062 33.53 151.652 34.42 151.932 35.56C152.212 36.68 152.352 38.19 152.352 40.09C150.992 40.17 149.662 40.21 148.362 40.21H144.102C144.102 40.85 144.232 41.33 144.492 41.65C144.772 41.97 145.162 42.18 145.662 42.28C146.162 42.36 146.862 42.4 147.762 42.4ZM144.402 35.5C144.282 35.56 144.192 35.82 144.132 36.28C144.072 36.74 144.032 37.26 144.012 37.84H145.572C146.512 37.84 147.192 37.83 147.612 37.81C147.612 36.85 147.472 36.17 147.192 35.77C146.932 35.37 146.472 35.17 145.812 35.17C145.272 35.17 144.802 35.28 144.402 35.5ZM154.248 28L159.378 27.79V46H154.248V28Z" fill="black"/>
</svg>
