<svg width="686" height="647" viewBox="0 0 686 647" fill="none" xmlns="http://www.w3.org/2000/svg">
<path d="M310.829 68.4067C538.742 170.075 580.204 510.434 423.798 617.809" stroke="#7691B9" stroke-width="2" stroke-dasharray="10 10"/>
<mask id="mask0_3_138" style="mask-type:alpha" maskUnits="userSpaceOnUse" x="248" y="29" width="53" height="48">
<rect width="40.1898" height="43.8961" transform="matrix(-0.222547 -0.974922 0.983051 -0.183333 257.62 76.3746)" fill="#D9D9D9"/>
</mask>
<g mask="url(#mask0_3_138)">
<path d="M285.903 59.4406L284.362 63.9831C284.251 64.316 284.027 64.5349 283.692 64.64C283.357 64.7451 283.045 64.7112 282.755 64.5382L282.104 64.149C281.959 64.0625 281.847 63.9487 281.768 63.8074C281.689 63.6661 281.649 63.5247 281.648 63.383L281.367 59.6908L272.902 54.6314L268.783 66.9737C268.637 67.4265 268.317 67.7344 267.823 67.8975C267.329 68.0605 266.865 68.0123 266.431 67.7528L265.888 67.4285C265.635 67.2772 265.452 67.0915 265.339 66.8714C265.226 66.6512 265.172 66.4132 265.176 66.1571L265.974 50.5618L257.598 45.4857C256.983 45.1182 256.598 44.5943 256.443 43.914C256.288 43.2338 256.412 42.6149 256.816 42.0573C257.22 41.4997 257.796 41.1511 258.545 41.0114C259.295 40.8717 259.977 40.9856 260.592 41.3531L269.039 46.3308L284.399 39.5089C284.686 39.3986 284.98 39.3509 285.28 39.3658C285.581 39.3807 285.857 39.4639 286.111 39.6152L286.382 39.7774C286.888 40.0801 287.154 40.4915 287.179 41.0116C287.204 41.5318 286.99 41.9618 286.536 42.3017L275.895 50.4989L284.361 55.5582L288.114 54.3475C288.318 54.2811 288.516 54.2584 288.708 54.2793C288.9 54.3002 289.087 54.3647 289.268 54.4728L289.539 54.635C289.901 54.8512 290.103 55.1539 290.145 55.5432C290.187 55.9326 290.035 56.2588 289.689 56.5219L285.903 59.4406Z" fill="black"/>
</g>
<path d="M59.6825 85.7106C59.739 85.6849 59.7673 85.6608 59.7673 85.6431C59.7673 85.5307 59.7277 85.5934 59.6825 85.7106ZM202.907 275.763C202.907 275.763 200.209 275.124 200.092 274.74C199.98 274.358 195.365 269.753 195.259 269.882C195.139 270.007 193.339 267.827 193.113 268.474C192.892 269.113 189.4 269.113 189.4 269.113L185.686 268.082C185.686 268.082 184.115 269.37 184.45 268.851C184.787 268.341 184.561 265.273 184.45 265.788C184.338 266.294 178.82 263.099 178.82 263.099L176.903 265.017V262.587L173.984 260.543L174.325 257.856L172.964 256.576C172.964 256.576 172.745 256.958 172.632 256.704C172.52 256.451 171.731 251.334 171.731 251.334L167.45 247.367L162.278 247.11L157.548 244.161L156.535 241.48C156.535 241.48 153.833 240.078 153.833 239.693C153.833 239.311 153.053 239.568 152.821 239.435C152.602 239.311 152.715 238.035 152.715 238.035L151.468 236.876L151.023 236.532L149.922 236.153L149.248 235.084C149.248 235.084 151.696 233.841 151.444 233.941C151.196 234.031 145.961 234.893 145.961 234.893L145.455 236.041L143.005 234.606L138.87 234.315C138.87 234.315 135.91 232.976 135.995 232.594C136.084 232.209 135.068 230.77 135.068 230.77C135.068 230.77 134.393 232.594 134.224 232.785C134.057 232.976 131.949 234.991 131.949 234.991L132.111 238.065L130.679 236.331L131.695 234.7V232.401C131.695 232.107 132.961 231.441 132.961 231.441L132.453 230.199C132.453 230.199 130.937 230.677 130.937 230.966C130.937 231.252 128.912 232.594 128.912 232.594L126.46 233.647H125.364C125.364 233.647 124.269 235.657 124.008 235.758C123.758 235.856 123.848 237.682 123.848 237.682C123.848 237.682 121.14 241.127 120.971 240.745C120.802 240.363 117.939 237.682 117.939 237.682L114.555 238.154L112.617 239.309L110.252 237.486L108.397 234.225L108.571 230.39L109.581 226.163L110.002 223.387L107.469 221.271C107.469 221.271 102.321 221.751 102.321 221.463C102.321 221.181 99.5306 221.565 99.6182 221.271C99.6987 220.987 100.631 219.164 100.631 218.872C100.631 218.583 101.309 216.381 101.309 216.381L102.407 213.889L103.841 209.102L104.681 207.462L100.464 207.177L97.9299 208.326L96.496 213.126L89.3192 215.331L87.5476 213.797C87.5476 213.797 87.3781 214.661 87.4685 214.181C87.5476 213.703 85.2717 210.339 85.2717 210.339L84.1726 205.645C84.1726 205.645 87.0461 195.95 86.9557 196.147C86.8723 196.335 87.0461 192.591 87.0461 192.591L96.0764 185.88L99.5334 186.455L100.377 187.414L102.492 187.023L104.601 184.63L107.298 185.015L109.911 184.442L111.519 186.458L113.877 185.405L115.144 186.943L115.91 187.895V189.531L115.319 191.063L115.91 194.518L117.597 197.207L118.693 197.684L120.044 193.465L119.788 189.531L119.199 186.357V184.057L122.663 179.271L127.132 175.62L130.678 173.318L133.801 169.482L133.633 165.836L134.991 165.552L136.329 162.293L137.681 162.473L140.303 158.736L144.686 157.015L147.393 156.441L148.238 155.387L147.225 154.428L149.333 150.872L156.004 147.899L160.059 146.557L156.761 148.957L157.436 150.776L159.885 150.01L161.659 148.766L166.3 147.329C166.3 147.329 167.403 145.215 167.23 145.695C167.067 146.173 169.596 145.215 169.596 145.215L169.092 144.06L169.26 142.527L167.912 143.103L165.876 145.597L162.589 145.414L161.073 142.818L162.507 140.612C162.507 140.612 163.939 137.35 163.856 137.547C163.77 137.733 161.58 136.776 161.58 136.776L158.285 138.114C157.949 138.114 154.826 140.227 154.908 139.941C154.994 139.653 153.303 140.996 153.303 140.996L157.606 137.069L159.382 136.776L161.409 134.662H171.116L174.409 133.893L178.796 131.21L179.139 131.692L177.28 133.702L175 136.39L172.8 139.071L171.705 140.705L175.166 140.896C175.166 140.896 177.865 140.973 178.122 140.896C178.46 140.8 178.543 142.237 178.543 142.237L179.975 141.087L180.74 143.293L183.274 141.087L182.51 138.592L183.189 136.285L180.234 136.388V135.139C180.234 135.139 179.139 133.7 179.053 133.89C178.965 134.084 180.74 132.264 180.654 132.455C180.57 132.647 179.891 131.498 179.891 131.498L181.924 128.611L180.912 125.355L180.569 123.729L177.951 122.289L177.024 120.847L175.839 119.794L176.771 117.298L176.348 115.477C176.348 115.477 175.592 109.527 175.507 109.717C175.418 109.911 171.955 112.982 171.955 112.982L168.416 115L166.553 113.176L166.728 110.771L168.332 109.047L165.71 108.089L165.541 107.321C165.541 107.321 163.179 104.636 163.013 104.825C162.843 105.024 162.253 105.695 162.253 105.695L156.679 105.111L154.74 108.951L154.318 110.964C154.318 110.964 151.266 114.435 150.893 114.703C151.116 114.629 152.544 116.244 152.544 116.244L151.274 119.691L146.464 122.857L144.104 123.246C144.104 123.246 142.666 129.197 142.751 129.578C142.834 129.965 140.811 131.013 140.811 131.013L139.376 132.166L138.782 130.059C138.782 130.059 138.135 128.447 137.878 128.04C138.256 128.216 139.626 128.423 139.626 128.423L139.883 127.076L138.53 127.176L139.123 124.968L140.389 122.575L135.997 122.189L134.993 120.844L132.792 120.459L132.619 119.401L131.1 118.349L129.241 117.391L127.219 117.678L127.133 115.668L127.637 113.75L125.616 113.367C125.616 113.367 129.162 109.238 129.077 109.431C128.986 109.622 139.033 103.765 139.033 103.765L140.218 102.333L142.156 102.136L146.376 99.9348L149.584 97.4415L149.922 97.6342L147.479 100.222L146.804 101.176L144.862 102.234L146.636 102.52L146.377 103.675L148.323 103.29L150.261 101.466L151.787 102.048L152.464 102.903L154.57 102.807L154.485 100.986L151.198 98.3037L150.429 97.4415L150.096 96.4799L151.525 96.6789L152.716 97.8284L153.979 96.3835L156.511 96.0063L159.043 93.9834L158.879 92.7392L160.817 90.6313L159.547 89.0997L162.926 89.0033L165.875 89.0997C165.875 89.0997 167.314 88.3339 167.569 88.8123C167.823 89.2907 170.016 91.1097 170.016 91.1097L169.172 91.9734L165.707 92.4582L164.863 94.3703L167.402 94.7588L169.339 92.4582L171.447 92.264L171.786 94.5614C171.786 94.5614 169.425 96.0994 169.089 96.1941C168.751 96.2969 167.313 97.0562 167.313 97.0562L167.228 98.7885L164.949 99.0727L162.587 98.5974L161.492 98.6906L159.717 100.318L161.152 101.757C161.152 101.757 163.264 100.799 163.6 100.513C163.937 100.227 165.034 99.6474 165.286 100.131C165.539 100.609 166.97 101.951 166.97 101.951L168.161 104.549L169.257 104.929L172.629 106.175C172.629 106.175 174.996 106.848 174.996 107.036C174.996 107.228 174.748 105.408 174.748 105.408L172.964 103.008C172.964 103.008 172.886 102.337 173.47 102.523C174.067 102.714 175.504 104.149 175.504 104.149C175.753 104.245 177.444 105.406 177.444 105.406L178.118 103.293L179.635 102.237L179.049 100.99L178.202 99.938L177.276 98.6906L177.358 97.2537C177.358 97.2537 177.612 97.0546 177.865 96.87C178.116 96.6805 178.876 96.0079 179.047 96.3851C179.213 96.7688 180.908 99.2653 180.908 99.2653L182.504 99.6458L183.269 98.2105C183.269 98.2105 185.375 97.9199 185.375 98.0179C185.375 98.1142 185.545 96.8684 185.545 96.8684L187.488 96.2952L184.703 93.505L183.185 92.6397L181.999 93.025L180.909 91.5865L182.088 90.3439L182.598 88.6132L181.246 87.08L179.135 86.6016L178.623 85.3494C178.623 85.3494 176.855 85.0636 176.6 85.2514C176.345 85.4505 175.08 83.5288 175.08 83.5288L173.983 81.9009C173.812 81.8029 173.223 81.127 172.886 81.2282C172.543 81.3245 169.003 81.4192 169.003 81.4192L168.159 81.7082L167.064 80.7449L162.671 81.9956L160.395 84.0104C160.395 84.0104 160.228 82.8577 160.395 82.5719C160.559 82.2846 162.163 81.2298 162.418 81.0387C162.671 80.8477 160.478 80.7466 160.478 80.7466C160.478 80.7466 156.423 82.2846 156.255 82.5719C156.087 82.8577 152.962 85.6383 152.962 85.6383L153.053 87.9421L155.919 88.4254L157.015 88.7063L156.255 89.4785L155.666 90.9154L153.811 92.0665L151.527 93.9818L149.586 94.8439L149.251 93.3123L150.938 92.1612C150.938 92.1612 150.6 89.7675 150.431 89.957C150.262 90.1496 148.492 89.8622 148.406 90.1496C148.324 90.4386 148.492 88.3307 148.492 88.3307L148.406 86.3126L147.985 84.773C147.985 84.773 149.422 83.4325 149.671 83.3377C149.925 83.2414 152.626 83.0488 152.626 83.0488L156.932 80.2681L153.385 80.0803C153.385 80.0803 150.097 80.1718 149.925 80.5603C149.755 80.944 147.566 83.5304 147.566 83.5304L146.214 84.6815L141.739 87.8522L141.568 90.0549L139.713 89.6728L138.366 89.3838L134.993 90.917V93.0266L128.821 93.4151C128.821 93.4151 125.871 92.9302 125.871 92.4566C125.871 91.9718 124.775 91.015 124.439 91.015C124.095 91.015 120.298 92.3571 120.298 92.3571L120.13 93.6976L115.74 93.4151C115.74 93.4151 112.113 94.1761 112.197 93.7972C112.282 93.4151 110.253 93.6029 110.253 93.6029L113.292 92.0681L111.186 90.917L107.381 90.2476L104.683 89.2891L101.65 89.7691L101.312 88.3323L98.6052 89.5749L97.8452 87.56L95.9902 88.5217C95.9902 88.5217 89.0691 90.1512 88.7301 90.2459C88.3952 90.3439 86.7084 89.4785 86.7084 89.4785L84.5907 90.628L80.5446 90.9154L78.9369 89.5749L75.6466 88.8091L72.0158 89.0001L65.2586 87.7495C65.2586 87.7495 61.3792 87.0784 61.6321 86.9773C61.885 86.8809 59.5257 86.2099 59.5257 86.2099C59.5257 86.2099 59.6203 85.8904 59.6938 85.7042C58.8659 86.1023 52.2655 87.3594 52.2655 87.3594L43.4048 90.6264L37.5786 91.967C37.5786 91.967 37.7467 93.6928 37.8286 93.9786C37.9148 94.2724 38.4206 96.1861 38.4206 96.1861L36.8185 96.5698H35.1232L35.9751 95.2292L27.3559 97.9135L27.5325 98.9683L26.9377 100.216L29.6389 100.503L31.9205 100.79C31.9205 100.79 33.1863 99.93 33.1863 100.217C33.1863 100.505 32.511 102.706 32.511 102.706L29.896 102.898C29.7279 102.611 28.3745 103 28.3745 103C28.3745 103 26.5987 104.237 26.5153 103.958C26.4306 103.671 22.975 104.629 22.975 104.629L19.0023 107.22L17.4864 109.808L17.3183 111.724L20.2724 111.154L18.5813 113.746L20.5238 113.645C20.5238 113.645 22.8054 113.645 22.9735 114.035C23.1445 114.419 24.1532 114.228 24.1532 114.419C24.1532 114.613 4.06387 123.435 3.89292 123.149C3.72341 122.856 0.772156 124.681 0.772156 124.681C0.772156 124.681 4.65016 123.915 4.90869 123.915C5.16016 123.915 10.8973 122.377 10.8973 122.377L13.5999 121.513C13.5999 121.513 19.4261 119.597 19.5038 119.308C19.59 119.017 23.6446 116.62 23.8975 116.62C24.1518 116.62 25.501 115.951 25.5886 116.336C25.6691 116.718 31.4119 114.613 31.4119 114.613C31.4119 114.613 33.435 112.977 33.2711 112.69C33.0959 112.403 31.9177 111.635 32.2553 111.542C32.5916 111.444 35.6262 110.961 35.6262 110.961C35.6262 110.961 40.1879 108.855 40.1046 109.139C40.0198 109.429 35.4623 112.886 35.4623 112.886L41.9638 111.444L44.583 110.194C44.583 110.194 46.7756 109.044 46.6075 109.333C46.4379 109.62 49.1405 110.481 49.1405 110.768C49.1405 111.056 54.793 112.019 54.793 112.019L56.4826 114.897L56.1407 118.635L55.974 123.34L59.0114 122.955L58.2556 126.023L58.4294 131.111C58.4294 131.111 58.5918 132.931 58.5918 133.219C58.5918 133.506 56.2283 132.646 56.2283 132.646C56.2283 132.646 55.8892 134.85 56.1421 135.136C56.4049 135.423 59.1866 138.589 59.1866 138.589L58.257 139.934L56.1421 145.881L51.1622 152.401L50.3216 155.958L47.8719 159.023L48.2943 161.23C48.2943 161.23 47.619 162.768 47.7942 162.958C47.9566 163.147 48.9724 173.605 48.9724 173.605L52.5198 176.097L53.4452 178.017L53.9524 185.882L55.4682 189.43L53.7828 190.774L55.7225 193.837L56.484 193.938L58.0084 195.948L57.4136 198.637L59.0143 200.074L60.5372 202.762L60.7915 204.102L62.2283 202.474L60.7915 199.117C60.7915 199.117 59.7785 196.618 59.8633 196.049C59.9481 195.471 58.5156 191.154 58.5156 191.154C58.5156 191.154 57.1579 187.89 57.3317 187.605C57.4955 187.314 56.3131 185.402 56.3131 185.402L56.9078 181.47L59.3561 182.045C59.3561 182.045 59.7786 185.683 59.7786 186.073C59.7786 186.455 60.3705 188.759 60.3705 188.759L63.576 193.835L63.0731 196.43L69.2313 204.773L69.1465 208.133L68.2169 209.76L68.7227 212.067L73.875 216.382L74.717 216.193L76.2343 217.92L81.8034 221.088L84.5907 221.857L87.8881 220.702L89.9959 221.857L93.2043 226.076L96.496 227.031L99.8682 228.38H101.48L101.903 230.581C101.903 230.581 103.421 232.79 103.759 233.077C104.094 233.365 103.844 235.861 103.844 235.861L105.276 236.718L106.966 238.736L108.062 239.892L109.247 241.424L110.005 240.849L111.525 241.326L113.715 243.633L115.15 242.668L114.737 240.849L116.077 239.316H117.262L118.531 240.464L118.444 241.808L119.963 244.588L120.049 252.358L118.699 254.857L116.838 256.295L116.759 258.591L114.814 259.453L114.055 262.524L112.871 265.212L113.124 267.511L114.815 269.238L113.292 271.07L112.199 272.887L113.203 276.525C113.203 276.525 113.708 278.352 113.708 278.158C113.708 277.967 115.319 279.412 115.319 279.412L118.272 286.118L121.137 290.826C121.137 290.826 125.306 300.374 125.391 300.449C126.65 301.501 135.835 309.019 135.835 309.019L137.402 318.355L137.86 338.049L139.208 343.684L138.64 355.068L138.195 357.367C138.195 357.367 139.993 360.947 139.993 361.464C139.993 361.975 140.329 366.446 140.329 366.446L141.566 371.307L143.028 371.182L142.128 368.369L143.257 368.498L144.038 372.97L144.149 374.757L143.257 373.863L142.465 374.757L141.902 375.528L143.028 376.684L142.467 378.463L142.244 380.771L143.819 381.028L144.943 382.049L143.819 384.223C143.819 384.223 150.792 398.165 156.647 399.823C162.501 401.493 164.188 402 164.188 402L166.669 400.464L167.447 399.316L162.275 397.27L158.336 392.403L157.545 389.85L158.783 388.831L158.561 386.907C158.561 386.907 158.561 385.502 159.005 385.12C159.459 384.738 160.358 382.818 160.358 382.818L159.005 382.049L156.757 379.495L156.982 376.546L158.335 375.658C158.335 375.658 158.444 373.99 158.222 373.608C157.992 373.229 158.56 371.304 158.897 371.179C159.238 371.047 160.129 369.511 160.129 369.511H158.561L157.662 369.132L156.532 367.091V365.55L158.445 366.189L160.252 365.804L161.264 364.142C161.264 364.142 160.926 363.121 160.814 362.739C160.701 362.357 161.039 360.69 161.375 360.562C161.711 360.442 163.736 360.69 163.736 360.69L167.564 359.543C167.564 359.543 169.029 356.597 168.918 356.086C168.805 355.575 168.805 353.912 168.805 353.912C168.805 353.912 168.805 352.764 167.906 352.628C167.001 352.504 167.001 352.127 166.776 351.091C166.547 350.072 165.871 348.921 165.871 348.921L164.749 349.178L165.765 348.03L168.015 349.942L171.389 350.589L173.98 347.643L175.782 342.653L176.568 338.943H178.253L180.052 335.235L180.731 331.783L180.169 327.557L180.956 326.031L186.806 321.553L191.2 319.888L192.669 318.604C192.669 318.604 194.912 315.155 194.912 314.772C194.912 314.388 195.815 309.397 195.815 309.397C195.815 309.397 196.825 303.521 196.71 303.139C196.601 302.748 196.938 297.635 196.71 297.507C196.483 297.381 196.825 295.969 196.825 295.969L201.103 289.065L203.129 283.816C203.129 283.816 204.598 281.133 204.371 280.622C204.142 280.11 202.907 275.763 202.907 275.763ZM247.417 88.5201C247.417 88.5201 248.097 84.6783 247.591 84.2946C247.078 83.9125 249.617 81.6103 249.617 81.6103C249.617 81.6103 253.326 79.6902 253.495 79.1202C253.663 78.5407 252.484 78.7253 252.484 78.7253L252.818 75.8515L255.186 74.8931C255.186 74.8931 253.838 72.5877 253.495 71.435C253.162 70.2951 257.55 69.714 257.55 69.714L265.316 65.6859L256.034 66.8354L255.691 65.4965L245.896 63L226.319 63.7722L224.128 65.1144H217.365L207.915 66.0744C207.915 66.0744 198.969 67.4134 198.461 67.7955C197.958 68.1824 199.476 68.7571 199.476 68.7571L199.308 70.1009L188.329 71.6389L187.658 72.981C187.658 72.981 188.838 74.3216 189.006 74.5142C189.171 74.7053 193.733 75.8548 193.733 75.8548L199.137 76.6222C199.137 76.6222 202.177 78.1586 202.677 78.7285C203.188 79.3032 203.025 81.0387 202.852 81.9972C202.677 82.9572 202.177 83.1467 201.503 84.2978C200.825 85.4521 202.852 84.8725 202.852 84.8725L205.217 86.2131C205.217 86.2131 204.542 86.2131 203.525 86.4121C202.507 86.6032 201.16 86.9805 201.16 86.9805L200.992 89.098L204.374 88.3322L204.026 89.6712L201.667 90.2459L199.308 93.5034L199.137 99.6426L199.641 104.822L200.992 109.044L203.188 109.428L205.721 111.155L209.102 110.959L212.473 105.782L216.016 101.945L217.031 99.8352L218.723 98.6857L222.431 97.7289L227.161 96.573C227.161 96.573 231.545 93.3107 232.058 92.927C232.56 92.5449 244.715 88.3306 244.715 88.3306L247.417 88.5201ZM250.8 102.52L255.527 100.795L256.534 98.6873L254.683 96.9631L246.068 98.1126L243.537 96.3819L240.502 98.3036C240.502 98.3036 242.019 99.071 242.525 99.4531C243.031 99.8368 244.044 99.071 244.044 99.071V100.797C244.044 100.797 246.745 102.521 246.403 103.101C246.068 103.674 250.8 102.52 250.8 102.52ZM259.125 128.672L258.168 129.382L257.886 130.6L258.731 131.173L260.083 131.493L261.484 131.109L262.674 130.342L263.007 129.96L264.978 129.822L265.203 128.873L265.658 127.91V125.159L266.726 124.455L266.382 122.669L264.698 122.223L263.349 121.966L262.451 122.284L261.935 123.114C261.935 123.114 261.101 124.138 261.267 123.941C261.44 123.756 261.884 123.756 261.778 124.074C261.661 124.392 261.206 124.712 261.206 124.712H260.542L259.967 124.328L259.128 124.455L258.844 125.031L259.189 125.927L258.619 126.569L259.294 127.21L259.967 127.394L259.862 128.293L259.125 128.672ZM265.819 121.131C266.214 121.318 266.379 121.579 266.324 121.767C266.275 121.966 267.169 122.091 267.169 122.091L267.904 121.902L267.398 122.796C267.398 122.796 267.508 123.373 267.675 123.629C267.849 123.885 268.412 123.629 268.412 123.629C268.412 123.629 269.764 123.373 269.934 123.437C270.098 123.498 269.873 124.076 269.873 124.076L270.385 124.968C270.385 124.968 270.66 126.25 270.717 126.63C270.777 127.02 270.266 126.884 270.266 126.884C270.266 126.884 269.206 127.075 268.97 127.019C268.746 126.954 268.301 127.46 267.908 127.969C267.511 128.491 267.964 128.293 267.964 128.293H268.801C268.801 128.293 268.867 128.929 268.92 129.194C268.97 129.449 268.243 129.7 268.022 129.635C267.798 129.574 266.782 130.151 266.782 130.151L266.834 131.111L268.076 131.238L269.316 131.43L269.541 131.877C269.541 131.877 268.744 132.069 268.524 131.877C268.299 131.686 267.624 132.899 267.624 132.899L267.007 133.667L265.707 134.816L266.437 135.201L266.889 134.559L268.021 134.624L269.25 134.432C269.25 134.432 269.989 133.41 270.159 133.41C270.322 133.41 272.07 133.349 272.07 133.349C272.07 133.349 273.477 133.028 273.645 133.156C273.813 133.285 274.941 133.543 275.116 133.604C275.281 133.667 277.475 132.901 277.475 132.901C277.475 132.901 277.923 132.071 278.035 131.816C278.152 131.56 277.42 131.305 277.252 131.112C277.084 130.92 277.811 130.666 278.152 130.475C278.487 130.284 278.6 129.578 278.771 129.261C278.933 128.945 278.543 128.296 278.487 128.11C278.433 127.913 277.643 127.972 277.42 127.913C277.195 127.847 276.239 127.972 276.239 127.972L276.29 126.694C276.29 126.694 273.645 122.604 273.702 122.413C273.758 122.226 273.083 121.006 272.802 120.947C272.521 120.883 272.182 120.618 271.844 120.107C271.509 119.6 272.295 118.956 272.295 118.956C272.295 118.956 273.248 117.807 273.363 117.553C273.476 117.296 273.247 116.53 273.082 116.466C272.911 116.403 270.947 116.53 270.947 116.53C270.947 116.53 270.386 116.02 270.438 115.829C270.496 115.628 271.058 115.569 271.229 115.569C271.389 115.569 272.409 113.335 272.634 113.271C272.857 113.202 272.463 112.632 272.463 112.632L271.679 113.005L270.947 114.228C270.947 114.228 270.266 114.419 269.99 114.228C269.712 114.035 269.144 114.228 268.92 114.164C268.695 114.092 268.181 114.931 268.181 114.931C268.181 114.931 267.401 115.89 267.173 115.952C266.949 116.016 266.16 117.039 266.217 117.102C266.278 117.166 266.329 118.001 266.329 118.001C266.329 118.001 266.16 118.315 265.879 118.38C265.6 118.442 266.103 119.529 266.103 119.529L266.783 119.918C266.783 119.918 266.384 120.361 266.16 120.301C265.932 120.231 265.426 120.944 265.819 121.131ZM530.526 107.257C530.526 107.204 530.5 107.204 530.452 107.236C530.502 107.278 530.526 107.292 530.526 107.257ZM461.428 220.126C461.541 219.935 463.114 219.039 463.169 218.586C463.228 218.148 464.351 222.751 464.351 222.751L465.145 225.946C465.145 225.946 465.758 228.245 465.984 228.694C466.21 229.145 466.542 232.085 466.542 232.342C466.542 232.595 467.283 234.317 466.942 234.512C466.597 234.703 466.042 234.575 466.15 234.833C466.268 235.086 466.541 236.495 466.541 236.76C466.541 237.012 466.376 238.733 466.268 239.054C466.15 239.375 466.1 240.207 466.1 240.584C466.1 240.971 466.315 241.681 466.315 241.865C466.315 242.061 466.489 242.379 466.489 242.379C466.489 242.379 466.717 242.511 466.825 242.186C466.941 241.865 467.783 241.74 467.9 241.865C468.009 241.997 469.301 243.716 469.417 244.235C469.527 244.742 470.935 247.242 471.1 247.496C471.271 247.752 472.005 248.586 471.546 249.286C471.1 249.989 471.1 250.116 471.161 250.498C471.216 250.88 471.387 252.285 471.945 253.062C472.514 253.824 473.688 255.295 473.688 255.295C473.688 255.295 475.156 256.454 475.382 256.773C475.602 257.09 477.235 257.281 477.409 258.047C477.57 258.812 478.024 259.586 478.024 259.586C478.024 259.586 479.315 260.029 479.315 260.227C479.315 260.068 479.306 257.835 479.151 257.53C478.986 257.218 477.637 254.081 477.461 253.892C477.298 253.697 477.016 253.253 477.185 252.429C477.353 251.588 477.07 249.412 477.07 249.412L474.425 245.829C474.425 245.829 472.117 243.27 472.062 243.402C472.007 243.527 470.258 242.633 470.326 241.865C470.371 241.1 470.143 239.184 469.639 238.735C469.139 238.29 468.688 237.58 468.294 237.327C467.903 237.065 468.184 234.638 468.294 234.318C468.403 233.999 469.304 231.189 469.252 231.001C469.19 230.81 469.475 228.189 469.475 228.189C469.475 228.189 470.204 227.09 470.372 227.477C470.546 227.859 471.33 227.477 471.104 228.628C470.881 229.788 470.997 230.491 470.997 230.491L473.017 230.038L474.428 231.704L475.444 233.234L476.737 234.132C476.737 234.132 477.073 235.861 477.241 235.981C477.413 236.115 478.255 235.599 478.255 235.599L479.549 236.63C479.549 236.63 478.815 238.16 478.99 238.55C479.155 238.932 479.319 240.271 479.319 240.271L480.562 239.118L482.142 237.776L482.929 236.497L483.21 235.54L485.456 234.447L487.597 232.21L487.544 227.476L486.868 224.538L484.955 221.467L481.236 217.249L479.78 215.204C479.78 215.204 478.764 213.733 478.816 213.353C478.874 212.963 479.093 210.922 479.093 210.922L480.113 209.832L482.085 207.594C482.085 207.594 483.435 206.571 483.661 206.825C483.884 207.082 485.684 207.018 485.742 207.207C485.794 207.4 486.03 207.339 485.907 207.718C485.794 208.1 485.962 209.83 486.13 210.023C486.304 210.216 486.699 210.402 486.868 210.469C487.026 210.53 487.597 210.275 487.654 209.893C487.712 209.512 487.597 208.167 487.654 207.846C487.712 207.528 487.823 207.528 487.994 207.464C488.162 207.4 489.001 207.464 489.001 207.464L489.906 206.441L491.479 207.08L493.167 205.414C493.167 205.414 494.07 205.228 494.183 205.353C494.293 205.486 495.762 204.076 495.762 204.076L497.28 203.691L498.626 203.051C498.626 203.051 499.188 201.578 499.188 201.768C499.188 201.962 502.456 198.064 502.456 198.064L503.524 195.057L504.815 190.774L505.602 185.46L505.661 183.928C505.661 183.928 504.421 185.076 504.256 185.145C504.085 185.204 503.075 184.891 503.075 184.891L503.859 183.289C503.859 183.289 504.311 182.14 504.085 182.076C503.859 182.01 502.733 181.629 502.733 181.629C502.733 181.629 503.217 180.371 503.289 180.289C503.186 180.289 501.331 178.112 501.331 178.112C501.331 178.112 498.852 174.084 498.739 174.4C498.626 174.721 496.716 172.868 496.541 172.868C496.38 172.868 496.264 172.931 496.154 172.55C496.041 172.165 497.842 169.479 497.897 169.28C497.952 169.096 499.524 167.108 499.813 167.174C500.087 167.238 501.046 167.301 501.046 167.301C501.046 167.301 500.816 166.024 500.65 165.96C500.486 165.897 496.661 165.514 496.661 165.514C496.661 165.514 495.143 166.536 495.086 166.792C495.021 167.047 493.794 166.922 493.794 166.922L493.622 165.45L492.095 164.62L490.356 163.916L490.415 162.573C490.415 162.573 491.479 162.128 491.65 161.99C491.818 161.861 493.167 161.102 493.277 160.457C493.39 159.816 494.293 158.795 494.409 158.602C494.519 158.411 495.248 157.708 495.413 157.837C495.587 157.963 496.662 158.859 496.542 158.923C496.436 158.986 495.704 160.333 495.865 160.71C496.041 161.1 496.827 162.253 496.717 162.441C496.607 162.637 496.265 163.34 496.265 163.34L497.11 163.212C497.11 163.212 498.178 162.253 498.12 162.126C498.065 161.988 498.965 160.909 499.133 160.909C499.301 160.909 501.163 160.455 501.211 160.646C501.272 160.84 503.13 161.349 503.13 161.349L503.469 165.193C503.469 165.193 507.971 166.406 507.971 166.727C507.971 167.045 507.463 167.554 507.463 167.554C507.463 167.554 507.406 168.579 507.632 168.71C507.855 168.832 508.586 169.537 508.758 169.797C508.933 170.052 509.267 171.783 509.267 171.783C509.267 171.783 508.651 173.315 508.758 173.507C508.868 173.702 509.996 174.849 509.996 174.849L513.205 173.443C513.205 173.443 514.946 171.91 514.946 171.719C514.946 171.523 513.092 166.408 513.092 166.408L508.812 163.075L506.961 161.351L509.546 158.477L509.32 155.985C509.32 155.985 509.883 153.547 509.996 153.547C510.114 153.547 511.685 152.272 511.685 152.272L513.484 153.687L516.186 151.763L517.706 145.566L517.762 137.502L515.342 132.58C515.342 132.58 514.218 129.574 514.043 129.574C513.875 129.574 512.248 126.691 512.248 126.691L508.477 124.777L506.841 124.713L505.832 126.628L504.767 125.159L503.303 122.221L503.469 124.01C503.469 124.01 503.695 125.159 503.627 125.415C503.585 125.67 502.508 123.816 502.508 123.816C502.508 123.816 500.708 123.435 500.597 123.435C500.488 123.435 499.584 122.854 499.584 122.854C499.584 122.854 502.238 119.346 502.008 119.471C501.785 119.597 502.457 114.995 502.457 114.995C502.457 114.995 503.412 112.817 503.467 112.945C503.525 113.075 507.176 112.499 507.176 112.499C507.176 112.499 513.874 112.375 513.819 112.499C513.763 112.632 517.086 112.248 517.086 112.248C517.086 112.248 517.194 113.335 517.485 113.464C517.759 113.589 520.459 113.395 520.459 113.395L522.429 112.886L523.382 112.754C523.382 112.754 522.203 111.414 522.032 111.414C521.864 111.414 520.741 110.834 520.631 110.77C520.514 110.706 521.473 108.281 521.415 107.896C521.363 107.511 521.25 106.17 521.696 106.299C522.145 106.429 525.191 106.429 525.191 106.429C525.191 106.429 526.423 107.766 526.423 108.151C526.423 108.533 528.394 109.876 528.394 109.876C528.394 109.876 529.466 108.533 529.575 108.28C529.67 108.076 530.239 107.355 530.457 107.236C530.185 106.984 529.301 105.66 529.301 105.66C529.301 105.66 530.253 104.441 530.758 105.08C531.27 105.721 532.391 108.469 532.391 108.469C532.391 108.469 531.375 111.345 531.375 111.605C531.375 111.855 530.984 114.485 530.984 114.679C530.984 114.869 529.856 116.018 529.856 116.018C529.856 116.018 529.3 116.018 529.3 116.338C529.3 116.655 530.079 118.38 530.079 118.38C530.079 118.38 530.37 120.366 530.529 120.486C530.701 120.626 536.331 126.18 536.331 126.18L539.986 130.281L542.355 132.514L543.026 132.325C543.026 132.325 543.592 129.194 543.366 129.314C543.139 129.448 542.238 128.361 542.355 128.173C542.464 127.969 542.688 127.073 542.967 127.139C543.253 127.208 544.095 127.393 544.095 127.393L542.407 124.965L542.967 123.626L544.266 124.073L542.52 121.965L541.62 119.914C541.62 119.914 542.577 120.168 542.64 120.358C542.69 120.561 543.707 119.537 543.368 119.468C543.027 119.398 541.003 118.569 541.003 118.376C541.003 118.187 539.825 117.868 539.76 117.609C539.709 117.355 539.987 116.333 539.825 116.333C539.656 116.333 537.912 115.438 537.912 115.438L536.779 115.623L536.16 114.225L536.496 113.138C536.496 113.138 535.418 111.398 535.321 111.287C535.407 111.375 537.725 110.369 537.946 110.261C537.934 110.303 539.042 110.157 539.139 110.637C539.257 111.152 539.758 111.664 539.758 111.664L540.946 110.386C540.946 110.386 541.788 109.551 542.126 109.741C542.464 109.932 544.095 110.324 544.326 110.574C544.526 110.808 545.551 111.139 545.709 111.349C545.693 111.081 545.728 110.251 545.728 110.251L545.776 109.55L547.363 107.122C547.363 107.122 547.975 106.101 548.544 105.966C549.106 105.844 550.285 104.693 550.509 104.888C550.735 105.075 552.602 105.016 552.826 105.591C553.047 106.164 554.059 105.398 554.059 105.398C554.059 105.398 553.097 104.058 553.047 104.181C552.994 104.308 549.892 102.77 549.725 102.841C549.554 102.898 547.479 101.431 547.479 101.431C547.479 101.431 546.404 100.983 546.353 100.983C546.298 100.983 547.191 100.471 547.527 100.343C547.867 100.217 548.657 99.002 548.657 99.002C548.657 99.002 548.266 98.172 548.037 97.9151C547.809 97.6615 549.276 97.8525 549.78 98.1078C550.285 98.363 552.825 98.4899 552.764 98.6825C552.702 98.872 554.452 98.872 554.394 99.3857C554.336 99.8978 555.013 100.021 555.239 100.28C555.465 100.537 557.603 100.919 557.719 100.983C557.822 101.046 559.961 100.792 559.961 101.173C559.961 101.558 560.639 101.112 560.639 101.112C560.639 101.112 560.302 99.2589 559.908 99.3857C559.51 99.5125 558.775 98.8736 559.287 98.7483C559.795 98.6215 560.752 97.9809 560.472 97.8525C560.187 97.7273 559.739 97.0851 559.063 96.7624C558.391 96.4429 555.688 95.7462 555.407 95.8666C555.129 95.9998 550.903 94.8407 550.631 94.8407C550.343 94.8407 548.88 94.3992 548.88 94.3992L534.475 89.9858C534.475 89.9858 525.528 88.9006 525.58 88.7031C525.641 88.5169 520.405 88.0015 520.405 88.0015L523.505 90.9443L520.405 90.4354C520.405 90.4354 516.582 89.7322 516.469 89.5395C516.353 89.3501 505.772 89.2843 505.772 89.2843L504.199 87.3577C504.199 87.3577 499.132 86.4073 498.964 86.3431C498.796 86.2725 492.49 86.3431 492.49 86.3431L487.211 85.4473C487.211 85.4473 483.661 83.7166 482.872 83.9109C482.085 84.1035 474.32 83.3361 473.867 83.0776C473.421 82.8208 470.33 83.3345 470.33 83.3345L472.849 85.5099L468.693 85.3782L464.528 85.3124L462.948 84.4198L463.013 87.0431C463.013 87.0431 461.828 87.2919 461.828 86.974C461.828 86.6546 458.168 85.1872 458.168 85.1872C458.168 85.1872 455.124 82.1208 455.074 82.3134C455.016 82.5029 450.132 81.225 450.132 81.225L447.083 80.5892C447.083 80.5892 446.183 81.0339 446.293 81.2908C446.406 81.546 447.587 82.4403 447.419 82.6313C447.251 82.8208 445.399 82.4403 445.399 82.4403L440.614 82.2492L439.764 81.2266L433.461 81.2908C433.461 81.2908 431.099 79.178 431.04 79.3C430.989 79.4285 429.241 79.7592 429.241 79.7592L427.889 81.4176L424.067 81.7387L428.181 79.2422L429.643 78.0301C429.749 77.7026 428.62 75.7889 428.402 76.0426C428.181 76.3011 424.965 75.1484 424.797 75.1484C424.629 75.1484 419.789 75.0199 419.789 75.0199C419.447 74.9573 417.932 75.0199 417.932 75.0199C417.932 75.0199 417.37 73.2331 417.088 73.2957C416.809 73.3599 413.146 73.2315 413.146 73.2315C413.146 73.2315 409.885 73.9989 409.762 74.381C409.662 74.7679 410.39 75.1484 410.39 75.1484C410.39 75.1484 408.646 76.619 408.475 76.4905C408.31 76.3621 403.24 76.3621 403.24 76.3621C403.24 76.3621 396.207 78.0863 396.207 77.8937C396.207 77.7299 394.102 78.751 393.612 78.9966C394.026 79.4092 395.502 80.3644 395.307 80.5892C395.084 80.8429 390.353 81.0997 390.185 80.7144C390.033 80.3628 388.163 81.1736 387.866 81.225C388.207 81.3855 390.422 83.3538 390.576 83.654C390.744 83.9719 391.151 84.4214 391.702 84.1645C392.264 83.9093 392.77 83.654 392.886 83.9093C392.999 84.1645 392.886 84.7393 392.886 84.7393C392.886 84.7393 391.476 85.0604 391.313 85.0604C391.152 85.0604 389.454 83.9719 389.285 83.9093C389.119 83.845 386.867 83.2703 386.583 83.2703C386.295 83.2703 385.059 83.4613 385.059 83.4613C385.059 83.4613 384.104 84.4214 384.327 84.5498C384.56 84.6767 385.121 85.8904 385.292 85.7668C385.458 85.6335 386.473 85.123 386.526 85.7009C386.583 86.2693 385.347 86.7252 385.347 86.7252C385.347 86.7252 383.652 85.9514 383.597 85.7651C383.542 85.5661 382.752 84.484 382.752 83.9077C382.752 83.3313 381.742 81.2876 381.461 81.6055C381.183 81.9265 380.17 82.0534 380.17 82.0534L381.409 83.3313C381.409 83.3313 382.474 84.3508 382.193 84.4182C381.914 84.4824 381.125 84.9913 381.072 85.1856C381.014 85.3766 380.396 86.4603 381.125 86.4603C381.856 86.4603 383.039 87.7447 383.039 87.7447C383.039 87.7447 383.094 89.4737 383.204 89.729C383.317 89.9842 385.058 91.3248 385.058 91.3248C385.058 91.3248 386.136 90.5574 386.294 90.3679C386.472 90.1753 387.935 89.8574 388.272 90.2395C388.609 90.6216 387.594 91.58 387.315 91.3906C387.031 91.1963 386.415 91.0053 386.134 91.1321L385.847 91.259C385.847 91.259 385.456 92.219 385.847 92.4101C386.244 92.6043 386.757 93.2433 386.698 93.5612C386.637 93.879 385.572 96.056 385.572 96.056L383.992 96.4381C383.43 96.3113 382.533 95.8634 382.533 95.8634L384.22 94.396L384.446 92.4101C384.446 92.4101 384.504 92.2832 384.055 91.8353C383.596 91.3906 382.025 89.7932 382.025 89.7932C382.025 89.7932 381.069 87.9999 381.069 87.8089C381.069 87.6082 380.62 86.653 380.62 86.653C380.62 86.653 379.549 85.8229 379.323 85.7651C379.103 85.6993 379.103 84.9929 379.274 84.6108C379.439 84.2255 379.103 82.5029 379.045 82.7565C378.98 83.0134 377.071 82.6939 376.844 82.6297C376.618 82.5671 376.115 81.8623 376.115 81.8623C376.115 81.8623 375.837 80.7803 375.379 81.225C374.934 81.6713 374.147 81.8623 374.147 81.8623L373.36 84.2255L373.583 85.1856L372.008 86.4041C372.008 86.4041 373.337 87.7029 373.46 87.8024C373.364 87.7495 373.531 89.0916 373.583 89.4095C373.634 89.729 376.001 90.4338 376.001 90.4338C376.001 90.4338 377.24 91.0069 377.35 91.5817C377.466 92.1564 377.011 92.8612 377.011 92.8612L374.596 91.5817L369.245 89.6664C369.245 89.6664 364.074 89.2843 364.183 89.0932C364.3 88.9022 362.211 87.5552 362.211 87.5552L361.028 88.2568C361.028 88.2568 362.151 89.1574 362.327 89.2136C362.495 89.2843 364.183 89.9874 364.183 89.9874C364.183 89.9874 364.691 90.3069 364.802 90.8191C364.919 91.328 363.847 91.967 363.847 91.967C363.847 91.967 363.118 91.0727 363.118 90.8833C363.118 90.6906 362.944 89.9232 362.721 90.0501C362.495 90.1785 360.414 91.3938 360.414 91.3938C360.414 91.3938 358.05 91.4564 357.766 91.7117C357.485 91.967 355.966 93.1855 355.853 92.8628C355.737 92.5433 356.077 91.2012 356.026 90.9459C355.966 90.6906 353.659 91.3954 353.659 91.3954C353.659 91.3954 350.681 92.4791 350.564 92.797C350.454 93.1213 349.105 93.4375 348.873 93.5018C348.65 93.566 348.371 93.566 348.371 93.566C348.371 93.566 347.193 94.4008 347.414 94.8423C347.64 95.2918 345.782 95.5439 345.782 95.5439C345.782 95.5439 344.604 94.7155 344.548 94.5292C344.495 94.3542 345.827 93.3364 345.954 93.2497C345.782 93.3765 344.548 91.5865 344.378 91.5222C344.229 91.4709 341.171 91.5608 340.625 91.5351C340.981 91.6828 342.07 92.8804 342.07 93.057C342.07 93.2497 342.241 95.1056 342.241 95.1056C342.241 95.1056 343.134 95.7494 343.307 95.6739C343.475 95.6161 343.134 96.7656 343.134 96.7656L341.624 96.5746C341.624 96.5746 340.997 95.5455 340.491 96.1266C339.984 96.7078 338.3 98.1768 338.19 97.9858C338.074 97.7931 337.119 98.1768 337.175 98.5605C337.233 98.9458 337.964 99.7726 337.964 99.7726C337.964 99.7726 336.897 100.795 337.002 100.415C337.119 100.026 334.081 99.1352 333.854 99.1995C333.621 99.2637 332.33 99.7116 332.33 99.7116L332.889 100.797C332.889 100.797 334.581 100.924 334.803 101.307C335.036 101.69 334.416 102.457 334.238 102.457C334.08 102.457 330.138 100.347 330.138 100.347C330.138 100.347 328.841 98.8158 329.231 98.3694C329.635 97.9215 329.969 97.22 329.231 97.22C328.504 97.22 327.717 96.5762 327.666 96.3209C327.607 96.0656 332.104 96.8379 332.104 96.8379L334.699 97.1525C334.699 97.1525 334.362 97.541 335.375 97.1525C336.384 96.7688 338.074 95.8056 338.3 95.751C338.526 95.6755 338.801 94.4634 338.801 94.4634L338.465 93.3781L328.792 90.7581C328.792 90.7581 325.579 89.6712 325.524 89.4801C325.469 89.2891 322.654 88.9648 322.654 88.9648L321.3 89.1623L322.433 87.56C322.433 87.56 318.037 86.0846 317.929 86.2757C317.811 86.4667 316.014 87.438 316.014 87.438L312.639 86.7942L308.301 87.9437L303.911 89.1623L297.556 92.2286L299.92 92.4839L298.901 94.4634L296.087 96.8379L294.517 99.7742L294.291 101.373L292.774 103.224C292.774 103.224 291.706 102.587 291.481 102.335C291.258 102.073 287.538 103.542 287.538 103.542L285.291 105.974C285.291 105.974 284.728 107.193 284.615 107.512C284.498 107.835 284.783 111.224 284.783 111.224C284.783 111.224 286.134 111.224 285.738 111.671C285.343 112.115 285.399 114.167 285.399 114.167L286.977 115.374C286.977 115.374 289.057 116.148 289.347 116.081C289.616 116.018 290.636 115.251 290.809 115.122C290.966 114.997 292.212 113.591 292.604 113.648C292.997 113.719 294.009 112.432 294.126 112.887C294.236 113.335 294.464 114.933 294.685 115.316C294.91 115.7 295.697 116.403 296.033 117.294C296.368 118.192 296.83 119.091 296.711 119.274C296.594 119.473 295.809 120.361 295.809 120.361C295.809 120.361 294.126 120.616 293.897 120.881C293.674 121.133 293.393 121.26 293.223 121.133C293.049 121.005 293.784 120.106 293.954 119.86C294.125 119.598 293.561 118.574 293.335 118.637C293.106 118.704 292.887 118.062 293.106 117.871C293.335 117.678 293.278 116.464 293.278 116.464C293.278 116.464 292.941 116.27 292.774 116.338C292.604 116.402 290.635 117.294 290.635 117.294C290.635 117.294 289.567 118.574 289.51 118.828C289.45 119.091 288.999 120.43 289.287 121.385C289.567 122.35 290.241 123.885 290.241 123.885C290.241 123.885 290.966 124.456 290.69 124.715C290.413 124.968 289.842 125.928 289.842 125.928L288.499 125.991C288.499 125.991 286.079 126.317 285.85 126.439C285.628 126.571 283.268 127.396 283.374 127.656C283.492 127.911 282.865 130.664 282.865 130.664C282.756 130.729 280.391 132.646 280.111 132.646C279.83 132.646 278.087 133.155 278.087 133.155C278.087 133.155 277.299 135.521 277.245 135.391C277.189 135.261 274.593 136.797 274.593 136.797C274.593 136.797 272.627 136.157 272.57 135.898C272.514 135.645 271.837 135.07 271.783 135.262C271.724 135.457 272.456 137.446 272.456 137.83C272.456 138.204 272.57 138.973 272.344 138.722C272.118 138.461 270.994 138.085 270.77 137.955C270.54 137.83 268.63 137.887 268.63 137.887H267.842C267.842 137.887 266.882 138.851 266.826 138.656C266.774 138.462 266.717 139.491 266.717 139.491L267.277 140.127L269.308 141.085L271.22 142.429L271.951 144.473L272.793 146.391C272.793 146.391 272.23 150.355 272.125 150.553C272.001 150.741 270.824 151.641 270.824 151.641L267.164 151.571C267.164 151.571 265.362 151.126 265.194 151.062C265.026 150.994 262.492 151.444 262.442 151.188C262.386 150.93 261.595 150.994 261.595 150.994L261.196 150.485H260.185L259.341 151.569L258.104 151.64V152.784C258.104 152.784 258.609 155.412 258.553 155.221C258.496 155.024 258.33 158.286 258.33 158.286C258.33 158.286 257.113 161.065 256.99 161.277C257.017 161.36 256.924 163.147 256.924 163.147L257.657 164.493L257.769 166.087C257.769 166.087 257.205 167.556 257.431 167.429C257.659 167.299 259.461 167.492 259.511 167.238C259.567 166.984 260.64 166.408 260.803 166.853C260.97 167.299 261.595 166.853 261.77 167.627C261.927 168.392 262.551 169.478 262.612 169.667C262.667 169.866 263.116 170.051 263.116 170.051L263.284 170.568L262.942 170.889L261.544 174.464L258.441 176.961L256.588 178.299L256.081 179.903L255.295 180.926L255.069 182.907C255.069 182.907 255.295 185.397 255.178 185.529C255.069 185.656 250.959 190.069 250.959 190.069L248.709 190.644L247.466 193.076C247.466 193.076 245.779 194.861 245.67 195.189C245.553 195.503 244.711 196.724 244.711 196.724C244.711 196.724 244.767 199.276 244.711 198.896C244.653 198.512 242.294 201.002 242.294 201.002C242.294 201.002 241.844 203.945 241.733 204.076C241.621 204.198 240.497 206.44 240.323 206.375C240.155 206.31 239.987 207.909 239.987 208.166C239.987 208.419 240.546 209.185 240.546 209.185C240.546 209.185 241.34 210.919 241.394 210.726C241.447 210.529 241.447 211.304 241.447 211.304L240.663 212.194C240.663 212.194 241.508 213.669 241.508 213.86V217.819L240.604 219.998L240.155 222.814L238.8 224.026L238.856 224.795L240.04 225.878L240.214 227.09L239.871 228.437V229.786L240.72 232.024C240.72 232.024 241.563 232.79 241.731 232.597C241.899 232.404 243.582 233.811 243.811 234.256C244.037 234.703 246.115 237.518 246.115 237.649C246.115 237.775 246.454 238.415 246.454 238.415L247.466 242.316C247.466 242.316 252.362 246.918 252.475 246.728C252.588 246.542 257.71 250.881 257.71 250.881C257.71 250.881 261.823 248.586 261.768 248.78C261.708 248.968 265.251 248.586 265.251 248.586L267.392 248.968L268.962 249.799L274.708 246.799L275.834 245.829L280.275 245.645L282.417 246.593C282.417 246.593 283.823 248.968 283.823 249.351C283.823 249.735 284.668 251.458 284.782 251.201C284.891 250.952 289.79 250.695 289.963 250.756C290.125 250.819 292.265 253.192 292.265 253.192L292.154 255.433L291.813 259.392L291.137 261.312L290.468 263.041L290.3 264.256C290.3 264.256 295.357 272.698 295.357 272.76C295.357 272.823 296.652 276.273 296.652 276.273L298.178 280.691L299.079 283.18L298.178 284.586L299.641 288.879L299.133 293.093L296.937 298.534L295.982 302.561L296.264 307.932L298.9 314.136L301.662 321.235L301.943 329.041L304.142 333.703L305.722 337.473L307.239 341.571L308.023 342.786C308.023 342.786 308.141 344.833 307.962 344.833C307.797 344.833 306.957 344.902 307.183 345.278C307.406 345.66 308.697 348.221 308.697 348.221L308.752 349.375L310.551 350.52L312.137 349.692C312.137 349.692 313.71 349.375 313.881 349.438C314.046 349.5 316.237 348.603 316.237 348.603L319.615 349.179L321.98 347.775L324.569 347.584C324.569 347.584 329.014 342.656 329.014 342.785C329.014 342.913 333.114 336.777 333.114 336.777L335.206 334.726L336.383 330.699L336.216 328.084C336.216 328.084 336.612 326.731 337.002 326.477C337.4 326.223 341.221 323.666 341.221 323.666L342.017 319.442L341.279 315.282C341.279 315.282 340.714 313.691 340.714 313.433C340.714 313.181 341.109 312.021 341.109 312.021L344.827 308.25C344.827 308.25 345.669 307.035 346.063 306.589C346.459 306.142 349.941 304.418 349.941 304.418L352.31 301.801L352.704 292.14C352.704 292.14 351.86 288.55 351.804 288.237C351.749 287.909 350.118 281.842 350.118 281.582C350.118 281.33 349.555 277.617 349.492 277.293C349.447 276.984 350.783 272.696 350.783 272.696L352.646 268.533L360.247 258.623L364.528 254.728L370.997 242.699L373.081 237.132L373.526 231.512L372.179 231.255C372.179 231.255 371.501 232.149 371.333 232.274C371.163 232.406 367.281 232.663 367.281 232.663L362.553 234.256L360.246 235.216L357.995 232.535L358.331 230.618L355.297 226.519L351.018 221.667C351.018 221.667 348.872 219.808 348.987 219.622C349.103 219.424 347.802 214.949 347.802 215.077C347.802 215.205 345.666 212.842 345.666 212.842L345.611 208.552L343.304 204.274L340.777 199.024C340.777 199.024 338.633 193.01 338.407 192.691C338.187 192.373 337.342 190.777 337.62 190.84C337.902 190.905 339.927 190.584 339.927 190.584C339.927 190.584 343.695 195.64 343.695 195.895C343.695 196.15 345.951 200.431 345.951 200.431C345.951 200.431 347.637 203.12 347.637 202.922C347.637 202.741 348.031 205.417 347.973 205.614C347.918 205.807 348.986 208.75 348.986 208.75L352.196 212.014L352.87 214.375L355.796 218.02L356.362 220.325L354.388 218.272C354.388 218.272 353.77 219.426 353.994 219.624C354.217 219.81 356.188 222.178 356.188 222.178L357.153 225.435L357.885 228.51L358.95 229.532L362.105 228.831L362.663 227.418H365.76L367.109 226.27L368.791 226.013C368.791 226.013 370.088 224.541 370.2 224.477C370.316 224.413 375.324 221.924 375.324 221.924C375.324 221.924 375.433 220.062 375.66 220.062C375.886 220.062 380.899 218.272 380.899 218.272L381.403 216.1L383.199 215.971L383.706 214.504L385.451 213.29L385.67 210.09L386.968 210.534L387.365 209.445L386.916 208.75L388.886 205.489L388.941 204.332L387.027 202.351L386.13 201.265C386.13 201.265 383.088 200.877 382.973 200.622C382.862 200.365 381.681 197.293 381.681 197.293C381.681 196.34 381.736 194.608 381.565 194.739C381.403 194.866 380.445 196.08 380.445 196.08L376.963 199.727L373.917 200.622C373.917 200.622 372.908 200.302 372.849 200.113C372.794 199.92 372.681 196.976 372.681 196.976C372.681 196.976 371.381 195.25 371.33 194.996C371.275 194.739 370.314 197.237 370.314 197.237C370.314 197.237 368.851 194.996 369.016 194.925C369.184 194.866 368.342 192.691 368.342 192.691L365.421 188.858L365.252 186.873C365.252 186.873 366.66 185.142 366.883 185.078C367.106 185.015 369.132 184.697 369.359 185.532C369.585 186.356 371.274 189.18 371.274 189.562C371.274 189.944 373.858 192.5 374.143 192.435C374.42 192.373 375.43 193.01 375.773 193.267C376.109 193.522 376.78 193.97 377.064 194.295C377.346 194.608 378.077 194.421 378.077 194.421L379.935 194.099C379.935 194.099 381.452 192.435 381.513 192.757C381.563 193.082 383.309 193.209 383.086 193.651C382.86 194.1 383.148 195.383 383.309 195.765C383.484 196.152 391.075 197.494 391.075 197.494L394.57 198.005C394.57 198.005 398.276 197.618 398.502 197.618C398.725 197.618 401.097 197.879 401.32 197.806C401.54 197.749 404.918 201.965 404.918 201.965L408.07 203.763L408.798 203.696L407.006 204.593C407.006 204.593 407.617 206.192 407.617 206.382C407.617 206.575 410.771 209.134 410.771 209.134C410.771 209.134 411.894 208.297 412.063 208.297C412.235 208.297 413.022 207.979 413.08 207.531C413.135 207.085 412.907 205.809 413.19 205.68C413.477 205.552 413.862 205.165 413.929 205.745C413.978 206.316 414.665 211.816 414.548 211.876C414.425 211.951 415.503 216.037 415.503 216.228C415.503 216.421 416.91 221.412 416.962 221.603C417.02 221.793 419.324 227.42 419.492 227.612C419.658 227.805 421.914 234.451 421.914 234.451C421.914 234.451 423.211 237.203 423.153 237.654C423.098 238.102 423.605 240.274 423.944 240.531C424.28 240.786 425.796 241.427 425.796 241.427C425.796 241.427 426.638 240.591 426.7 240.34C426.751 240.086 427.374 238.935 427.593 238.553C427.82 238.163 428.843 238.043 428.894 238.295C428.946 238.553 430.134 239.191 430.134 239.191L430.012 242.321C430.012 242.321 430.243 244.362 430.409 245.142C430.587 245.908 431.988 246.547 431.988 246.547L433.676 244.821L434.405 241.872L432.723 239C432.723 239 431.431 237.402 431.26 237.205C431.09 237.02 430.012 236.829 430.012 236.829C430.012 236.829 430.135 237.47 430.243 237.72C430.361 237.977 430.012 238.044 430.012 238.044L428.72 237.471L428.946 235.794C428.946 235.794 429.914 235.606 430.079 235.606C430.243 235.606 430.012 233.05 430.012 233.05C430.012 233.05 430.361 228.514 430.474 228.386C430.587 228.253 430.303 223.782 429.852 223.592C429.407 223.4 429.852 221.931 430.079 221.865C430.303 221.797 432.497 220.906 432.497 220.906L433.73 218.156C433.73 218.156 435.931 216.426 436.099 216.297C436.264 216.169 438.795 213.105 438.795 212.715C438.795 212.338 439.083 211.378 439.754 211.242C440.431 211.121 441.672 210.097 441.672 210.097V207.984C441.672 207.984 441.896 206.961 442.401 206.708C442.903 206.451 444.2 206.257 444.2 206.257C444.2 206.257 444.485 207.09 444.313 207.215C444.142 207.347 447.181 206.257 447.181 206.257C447.181 206.257 448.53 206.257 448.756 206.196C448.986 206.128 449.66 204.984 449.66 204.984C449.66 204.984 449.372 203.954 449.763 204.208C450.165 204.473 451.122 205.621 451.012 205.814C450.892 205.997 451.57 207.279 451.406 207.79C451.233 208.3 453.993 211.762 453.993 211.762C453.993 211.762 455.338 211.054 455.229 211.566C455.112 212.076 454.838 213.68 454.838 213.68C454.838 213.68 455.683 214.316 456.016 214.382C456.355 214.444 457.312 216.554 457.312 216.554C457.312 216.554 457.086 218.468 457.086 218.725C457.086 218.981 457.207 220.839 457.141 221.16C457.086 221.478 459.448 222.062 459.448 222.062C459.448 222.062 461.315 220.322 461.428 220.126ZM294.568 125.098L296.429 123.307L296.826 121.578C296.826 121.578 298.566 121.9 298.618 122.156C298.673 122.408 299.075 121.578 299.517 122.029C299.972 122.475 300.535 122.406 300.593 122.793C300.643 123.178 300.985 123.626 301.04 123.369C301.095 123.112 301.095 122.282 301.095 122.282C301.095 122.282 300.593 121.965 300.308 121.766C300.024 121.576 300.083 121 300.366 120.815C300.643 120.624 301.431 120.102 301.659 120.298C301.885 120.484 302.899 120.043 302.899 120.043C302.899 120.043 303.067 119.653 303.177 119.47C303.295 119.271 303.857 117.548 303.857 117.548C303.857 117.548 303.456 117.357 303.345 116.779C303.232 116.208 303.967 114.543 304.139 114.482C304.3 114.416 306.504 112.942 306.504 112.942C306.504 112.942 307.346 111.916 307.009 111.601C306.668 111.277 304.138 109.872 304.138 109.553C304.138 109.233 303.857 107.57 304.021 106.934C304.192 106.297 305.207 105.077 305.374 104.82C305.545 104.571 306.783 102.842 307.009 102.9C307.235 102.969 308.077 102.772 308.297 102.65C308.527 102.516 310.491 101.495 310.155 101.433C309.819 101.368 310.269 100.219 310.097 100.282C309.929 100.344 310.269 98.8126 310.663 98.6857C311.055 98.5589 311.729 97.9825 311.905 97.9825C312.064 97.9825 313.424 98.0468 313.76 98.1094C314.096 98.1736 315.278 97.5362 315.446 98.1094C315.614 98.6841 316.06 98.8126 315.672 99.0036C315.278 99.1963 314.378 100.092 313.814 100.664C313.254 101.237 311.562 102.524 311.336 102.582C311.116 102.65 310.993 102.773 310.546 103.097C310.097 103.411 310.097 102.651 309.99 103.862C309.872 105.079 309.708 106.419 309.929 106.872C310.155 107.318 310.32 108.021 310.097 108.342C309.874 108.664 310.039 108.855 310.097 109.429C310.155 110.004 310.841 110.258 310.89 110.515C310.942 110.77 311.842 111.28 311.842 111.28C312.291 111.223 312.809 111.157 312.913 111.414C313.03 111.669 313.256 111.542 313.256 111.542L314.204 111.28C314.204 111.28 315.166 110.641 315.505 110.706C315.841 110.77 316.289 110.579 316.683 110.706C317.077 110.834 318.763 110.195 318.995 110.258C319.218 110.328 320.789 109.556 320.906 109.813C321.019 110.068 321.864 110.004 321.864 110.004L322.54 110.579C322.54 110.961 321.864 111.855 321.698 111.988C321.528 112.114 320.967 112.632 320.629 112.499C320.293 112.375 320.061 112.563 319.612 112.375C319.161 112.179 318.316 111.919 318.089 111.919C317.864 111.919 315.225 112.632 315.225 112.632L313.879 113.075L313.646 113.974L313.817 114.165L315.167 115.122C315.167 115.445 315.734 115.251 315.617 116.018C315.506 116.784 315.448 117.103 315.28 117.485C315.108 117.871 314.436 118.574 314.267 118.124C314.099 117.678 313.259 116.846 313.031 116.655C312.811 116.464 312.136 116.591 311.732 116.591C311.34 116.591 310.55 117.232 310.55 117.935C310.55 118.637 310.159 119.54 310.324 120.232C310.495 120.945 311.23 121.841 310.894 122.286C310.55 122.735 309.768 123.055 309.432 123.244C309.095 123.437 308.301 124.076 308.023 124.203C307.742 124.329 306.897 124.713 306.726 124.267C306.561 123.817 306.222 123.116 306.222 123.116C306.222 123.116 305.941 122.48 305.823 122.671C305.723 122.856 305.094 122.928 305.094 122.928L303.638 123.565C303.638 123.565 302.844 124.203 302.679 124.331C302.505 124.458 301.663 124.458 301.325 124.649C300.989 124.843 299.975 125.802 299.696 125.354C299.411 124.909 299.248 125.673 298.901 124.97C298.572 124.268 298.679 123.499 298.282 123.631C297.894 123.759 296.987 124.013 296.881 124.268C296.763 124.524 296.652 124.524 296.434 124.779C296.208 125.033 294.574 125.225 294.574 125.225V125.098L294.568 125.098ZM341.194 172.452C340.773 173.702 340.773 175.329 340.179 176.578C339.585 177.819 339.332 178.491 338.913 179.268C338.489 180.025 338.489 181.085 337.817 181.563C337.143 182.047 336.131 182.716 335.539 182.238C334.953 181.756 332.587 181.854 332.327 181.95C332.077 182.047 329.21 181.854 328.87 182.52C328.533 183.195 326.346 182.716 325.998 182.52C325.661 182.331 321.528 180.409 321.191 180.318C320.855 180.223 318.736 179.17 318.396 178.882C318.059 178.592 315.953 178.3 315.871 178.014C315.785 177.725 316.039 177.343 315.696 177.439C315.365 177.527 312.913 178.397 312.576 178.678C312.233 178.977 311.484 179.743 311.484 179.743C311.484 179.743 310.463 180.892 310.548 181.754C310.638 182.618 311.563 183.289 311.227 183.768C310.891 184.246 309.71 184.821 309.71 184.821C309.71 184.821 308.436 183.48 308.02 183.289C307.598 183.097 303.635 182.427 303.635 182.427L302.03 180.318C302.03 180.318 299.499 178.397 299.244 178.301C298.989 178.206 296.204 178.301 295.777 177.919C295.354 177.529 294.004 175.519 293.332 175.617C292.655 175.712 292.911 174.466 293.164 174.275C293.415 174.084 294.175 172.452 294.092 172.165C294.004 171.875 294.513 170.25 293.671 169.771C292.828 169.28 293.415 167.651 293.415 167.651C293.415 167.651 294.261 167.46 293.924 167.46C293.586 167.46 292.32 167.556 291.98 167.077C291.648 166.597 291.553 166.408 291.225 166.597C290.881 166.792 288.77 167.174 288.52 167.077C288.264 166.983 286.243 167.269 285.905 167.269C285.569 167.269 285.99 167.366 285.569 167.269C285.141 167.172 283.451 168.041 283.369 168.418C283.291 168.802 281.602 168.33 281.346 168.418C281.089 168.514 278.643 168.514 278.643 168.514L274.589 169.282C274.589 169.282 271.889 170.826 271.806 171.305C271.721 171.785 270.876 172.552 270.625 172.738C270.375 172.933 268.856 172.738 268.763 172.453C268.684 172.165 265.978 172.552 265.978 172.552C265.978 172.552 264.883 171.876 264.546 172.167C264.209 172.454 264.209 170.916 264.209 170.916L264.63 169.775L266.148 168.62L269.783 167.846L271.556 166.509L272.648 166.029L273.32 164.018C273.32 164.018 274.587 163.73 274.503 163.438C274.419 163.151 274.087 161.807 274.087 161.807L276.53 157.493L279.99 155.573L280.582 154.229C280.582 154.229 280.25 152.505 280.498 152.213C280.75 151.924 283.03 151.347 283.03 151.347L285.902 152.404C285.902 152.404 287.419 151.256 287.756 151.063C288.092 150.869 289.7 149.817 289.7 149.817C289.7 149.817 289.864 148.955 290.203 149.05C290.54 149.145 291.976 148.763 292.148 149.53C292.316 150.297 293.582 152.698 293.582 152.698L295.522 155.001L297.382 156.632L299.662 157.588C299.662 157.588 301.01 158.931 301.262 159.028C301.515 159.121 302.779 160.757 302.779 160.757L303.453 162.094C303.453 162.094 303.033 163.154 302.696 163.635C302.359 164.109 301.346 165.361 301.092 165.259C300.838 165.17 298.892 164.787 298.892 164.787L296.785 165.072C296.785 165.072 296.453 165.649 297.042 166.127C297.632 166.605 298.306 166.512 298.894 166.894C299.494 167.277 301.012 168.049 301.012 168.049C301.012 168.049 302.027 168.235 302.027 168.521C302.027 168.81 302.361 167.753 302.276 167.084C302.193 166.414 302.105 165.554 302.697 165.36C303.292 165.169 304.216 165.36 304.216 165.069C304.216 164.783 304.474 164.395 304.474 164.395L305.233 163.348L305.148 162.679L305.912 161.996C305.912 161.996 305.491 161.433 305.148 160.946C304.815 160.465 304.474 160.177 304.719 159.697C304.977 159.22 305.818 158.546 306.249 158.931C306.668 159.314 307.931 159.505 307.846 159.988C307.766 160.463 307.846 161.133 308.019 160.755C308.181 160.368 308.104 158.834 308.104 158.834C308.104 158.834 307.427 157.782 306.835 157.686C306.25 157.586 304.719 156.726 304.3 156.535C303.881 156.342 303.124 155.865 303.124 155.865C303.124 155.865 303.457 154.81 302.958 154.907C302.447 155.001 300.93 154.709 300.93 154.427C300.93 154.133 299.408 152.787 299.33 152.507C299.246 152.213 297.891 150.105 297.891 150.105C297.891 150.105 297.126 149.243 297.046 148.955C296.958 148.666 296.878 148.186 296.708 147.422C296.535 146.655 298.394 144.736 298.31 145.022C298.224 145.305 298.734 145.693 299.076 146.555C299.408 147.422 300.76 148.859 300.93 149.434C301.096 150.007 302.958 151.643 303.374 151.829C303.803 152.018 304.048 152.6 304.895 152.982C305.743 153.367 305.661 153.552 306.756 154.131C307.848 154.708 308.02 154.905 308.183 155.186C308.358 155.478 309.027 155.383 309.286 155.862C309.538 156.339 309.875 156.437 309.875 156.915C309.875 157.392 310.218 157.392 310.04 158.352C309.875 159.31 309.624 159.598 309.71 159.789C309.795 159.985 311.315 163.536 311.907 163.536C312.496 163.536 314.266 164.303 314.013 165.45C313.762 166.599 315.108 168.135 315.108 168.135C315.108 168.135 316.237 168.217 317.017 168.365C317.049 167.696 316.925 166.622 317.565 166.215C318.316 165.735 319.415 165.252 319.245 164.778C319.072 164.3 318.904 163.433 318.232 162.862C317.565 162.288 316.881 161.99 316.713 161.041C316.548 160.079 316.29 158.827 317.049 159.214C317.808 159.595 318.484 161.426 318.829 160.171C319.161 158.927 320.003 158.061 320.592 158.35C321.19 158.638 322.288 159.116 322.203 159.5C322.117 159.884 322.961 162.958 322.961 162.958C322.961 162.958 323.298 163.249 323.466 164.684C323.634 166.119 324.73 166.504 324.565 166.984C324.394 167.46 323.885 167.747 325.242 167.943C326.585 168.135 327.858 168.42 327.858 168.803C327.858 169.189 328.954 169.388 329.124 169.67C329.289 169.959 330.302 170.532 330.473 169.959C330.641 169.389 330.98 168.229 331.233 168.421C331.486 168.62 333.595 168.62 333.766 169.391C333.941 170.147 335.372 170.147 335.372 170.351C335.372 170.536 336.638 169.871 336.638 169.871C336.638 169.871 338.408 168.333 338.916 168.62C339.42 168.908 340.851 167.559 340.683 168.807C340.518 170.054 341.618 171.208 341.194 172.452ZM349.633 155.57C349.384 155.86 347.775 157.679 347.775 157.679L344.567 157.198H342.374L340.518 156.433C340.518 156.433 339.249 155.955 338.998 155.664C338.741 155.377 337.143 154.703 337.143 154.703L333.763 155.568L331.144 156.433L330.222 157.389L327.097 156.528L325.242 155.475L324.223 154.224H325.153L324.822 152.691L324.985 151.638L325.825 151.058L326.42 148.279L327.436 147.799L327.686 146.364C327.686 146.364 328.532 145.496 328.788 145.208C329.041 144.924 329.884 143.575 329.884 143.575L331.904 144.537C331.904 144.537 334.015 144.828 333.679 144.926C333.335 145.019 332.325 146.366 332.325 146.366C332.325 146.366 333.085 146.838 333.434 147.131C333.763 147.419 334.528 147.894 334.357 148.474C334.186 149.047 335.623 148.952 335.623 148.952L336.13 147.994L338.489 147.324L339.334 146.839L337.982 146.367C337.982 146.367 336.801 145.882 336.972 145.593C337.143 145.303 338.238 143.386 338.238 143.386C338.238 143.386 341.025 142.431 341.275 142.431C341.522 142.431 343.222 142.047 343.222 142.047C343.222 142.047 341.871 143.58 341.697 143.871C341.522 144.161 341.785 145.113 341.361 145.502C340.943 145.884 340.344 146.273 340.095 146.371C339.837 146.459 340.006 147.422 340.261 147.52C340.521 147.618 341.361 147.998 341.361 147.998L345.077 150.201L347.354 152.789L349.133 154.428C349.131 154.422 349.886 155.284 349.633 155.57ZM371.078 168.227L368.959 168.514C368.959 168.514 367.106 167.651 367.027 167.27C366.935 166.888 366.515 166.024 366.261 166.215C366.009 166.41 365.166 166.504 364.915 166.41C364.663 166.312 363.726 165.45 363.726 165.066C363.726 164.685 363.469 163.823 363.895 163.435C364.321 163.053 365.165 162.385 364.994 162.089C364.831 161.805 364.738 160.567 364.738 160.365C364.738 160.172 364.738 159.985 365.249 159.887C365.754 159.789 365.754 159.789 365.754 159.789C365.754 159.789 365.922 159.217 365.668 158.928C365.416 158.639 363.892 157.392 363.724 157.106C363.565 156.82 361.698 154.807 361.446 154.51C361.196 154.229 360.097 153.367 360.097 153.367L359.507 151.924L360.011 150.103L358.496 149.719L358.16 148.477V148.186L359.758 146.08C359.758 146.08 360.86 145.41 361.11 145.593C361.363 145.793 361.951 145.02 362.048 144.733C362.123 144.439 363.725 143.193 364.068 143.002C364.403 142.813 364.992 141.949 365.334 142.429C365.668 142.906 367.777 143.678 367.777 143.678C367.777 143.678 368.543 143.868 368.451 144.247C368.369 144.637 367.692 147.131 367.692 147.131C367.692 147.131 366.178 146.651 366.01 146.748C365.846 146.839 364.663 147.324 364.915 148.09C365.166 148.857 363.988 148.377 364.07 148.761C364.15 149.142 364.321 149.718 364.577 149.911C364.831 150.102 366.26 150.964 366.431 151.54C366.596 152.12 368.958 153.845 368.958 153.845C368.958 153.845 369.214 154.035 369.129 154.425C369.05 154.807 368.876 156.82 369.129 156.82C369.382 156.82 369.969 156.722 369.969 156.722C369.969 156.722 370.737 154.903 370.991 155.096C371.242 155.286 372.257 156.148 372.51 156.819C372.757 157.49 373.268 158.158 373.014 158.35C372.755 158.54 371.577 158.447 371.241 158.447C370.909 158.447 370.311 157.967 370.143 158.158C369.969 158.35 369.639 158.829 369.889 159.402C370.143 159.983 370.653 160.844 370.909 161.041C371.158 161.229 371.408 161.128 372.173 161.905C372.932 162.672 373.183 163.051 372.932 163.916C372.678 164.778 372.846 165.547 372.932 165.832C373.015 166.119 373.184 166.79 373.356 167.077C373.52 167.366 373.52 167.747 373.52 167.747L371.078 168.227ZM340.618 91.5335C340.588 91.5206 340.556 91.5206 340.545 91.5206C340.518 91.5335 340.55 91.5335 340.618 91.5335ZM545.721 111.412C545.728 111.398 545.716 111.372 545.702 111.353C545.709 111.418 545.709 111.451 545.721 111.412ZM393.497 79.0464C393.497 79.0464 393.533 79.0367 393.6 78.9998C393.543 78.9404 393.503 78.8955 393.497 78.8666C393.442 78.6049 393.497 79.0464 393.497 79.0464ZM369.581 293.276C369.581 293.276 367.775 295.585 367.668 295.973C367.549 296.351 366.093 298.398 365.86 299.035C365.634 299.674 363.839 301.079 363.839 301.079L360.575 302.615C360.575 302.615 359.451 302.744 359.786 303.262C359.786 303.262 359.56 304.278 358.778 305.433C357.986 306.581 358.778 308.114 358.778 308.114L359.223 310.671V313.105C359.223 313.105 358.546 315.791 358.21 315.916C357.876 316.048 357.313 316.814 356.976 318.095C356.634 319.371 356.75 320.267 356.75 320.267C356.75 320.267 356.976 322.185 356.634 322.572C356.291 322.954 357.197 324.87 357.54 325.517C357.876 326.151 358.778 326.533 358.778 326.533C358.778 326.533 359.56 327.304 359.901 327.556C360.237 327.813 361.924 327.055 361.924 327.055C361.924 327.055 363.166 326.416 363.499 326.154C363.838 325.892 364.066 325.772 364.735 324.493C365.415 323.213 364.965 323.595 365.071 323.213C365.192 322.831 365.858 321.163 366.202 318.991C366.538 316.815 366.654 316.944 367.102 315.027C367.548 313.107 368.112 312.591 368.225 311.065C368.338 309.528 368.448 308.884 368.558 308.369C368.674 307.862 369.804 305.945 369.912 304.662C370.022 303.389 370.022 302.745 369.804 302.238C369.581 301.719 371.155 302.101 371.375 301.336C371.605 300.567 371.375 301.336 371.491 300.958C371.605 300.568 371.721 298.142 371.721 296.738C371.721 295.331 370.482 293.148 370.358 292.772C370.255 292.387 369.581 293.276 369.581 293.276ZM482.013 274.735C482.357 273.712 482.013 273.584 481.792 273.073C481.568 272.563 482.237 270.264 483.141 269.365C484.041 268.467 482.691 268.336 482.691 268.336L481.341 268.593L480.102 265.907C480.102 265.907 477.963 263.995 477.291 263.479C476.614 262.972 478.296 261.943 478.296 261.943C478.296 261.943 474.479 257.851 474.027 257.851C473.578 257.851 471.322 255.807 470.985 255.674C470.649 255.55 468.849 252.094 468.849 252.094L461.192 247.748C461.192 247.748 460.182 248.775 460.182 249.281C460.182 249.793 461.534 250.048 461.534 250.048C461.534 250.048 461.981 250.43 462.431 250.689C462.88 250.946 464.23 252.222 464.344 253.123C464.453 254.014 464.683 254.527 465.47 255.29C466.263 256.059 467.606 256.449 467.606 256.449C467.606 256.449 468.176 258.62 468.626 258.877C469.073 259.133 469.413 260.28 469.632 260.923C469.86 261.562 472.001 265.526 471.88 266.933C471.772 268.341 473.465 271.669 473.465 271.669C473.465 271.669 477.292 275.117 477.405 275.633C477.515 276.14 480.32 277.039 480.32 277.039C480.32 277.039 481.677 275.756 482.013 274.735ZM508.127 248.513C508.127 248.003 506.888 246.855 506.547 246.34C506.211 245.824 504.188 243.779 503.739 243.397C503.292 243.015 503.739 243.397 503.065 244.81C502.391 246.214 501.6 247.876 501.259 248.001C500.92 248.13 498.451 249.918 497.771 250.812C497.097 251.707 495.751 254.012 495.302 253.638C494.852 253.248 492.93 255.288 492.93 255.288L491.92 258.103L488.766 257.34L488.989 258.494C488.989 258.494 487.982 260.277 488.208 260.668C488.434 261.052 488.208 262.462 488.544 263.221C488.878 263.995 489.218 264.504 489.781 265.014C490.343 265.525 490.454 267.188 490.117 268.467C489.779 269.747 490.57 270.001 491.017 270.519C491.466 271.027 492.478 271.158 492.93 270.768C493.379 270.383 494.282 270.262 494.851 270.644C495.402 271.027 496.874 271.027 497.32 271.667C497.77 272.306 499.572 271.921 499.906 272.306C500.249 272.688 502.049 271.921 502.495 271.402C502.94 270.901 502.495 269.88 502.495 268.211C502.495 266.549 502.721 266.677 503.514 266.037C504.301 265.398 504.863 264.886 504.973 263.996C505.091 263.096 505.314 261.562 505.314 260.793C505.314 260.024 507.115 260.156 507.448 259.898C507.796 259.641 507.222 259.132 507.222 258.75C507.222 258.361 505.76 256.574 505.427 255.934C505.091 255.29 505.986 252.094 506.546 251.583C507.116 251.071 508.127 249.026 508.127 248.513ZM492.37 282.918C492.705 283.046 493.492 283.046 495.175 283.557C496.873 284.068 498.448 284.199 498.67 284.708C498.896 285.215 500.352 284.708 501.036 284.583C501.71 284.451 503.291 282.788 504.301 284.069C505.315 285.349 507.337 284.451 507.676 284.708C508.012 284.957 509.034 284.069 510.264 284.201C511.505 284.323 511.618 284.708 511.954 284.708C512.29 284.708 513.416 285.093 513.98 284.957C514.543 284.833 515.216 284.068 516.23 284.199C517.249 284.321 519.941 283.297 519.941 283.297C519.941 283.297 519.941 283.427 519.275 283.938C518.595 284.448 516.343 286.363 516.343 286.363C516.343 286.363 516.004 286.111 515.89 286.882C515.781 287.648 515.107 289.186 515.781 288.539C516.459 287.908 518.823 285.602 519.386 285.092C519.943 284.581 520.169 284.321 520.733 283.938C521.295 283.555 522.531 283.169 522.531 283.169L523.324 282.53C523.324 282.53 522.645 282.022 522.305 282.147C521.974 282.281 521.405 281.64 520.622 282.022C519.831 282.404 517.697 282.788 517.697 282.788C517.697 282.788 516.345 283.046 515.558 282.664C514.771 282.282 513.865 281.64 513.53 282.149C513.194 282.664 511.281 283.3 510.938 283.3C510.606 283.3 509.366 283.172 508.466 282.92C507.564 282.666 507.338 282.666 506.889 282.666C506.44 282.666 506.44 282.284 505.202 282.151C503.96 282.025 503.617 281.643 503.292 281.769C502.943 281.902 502.392 282.025 501.943 282.284C501.488 282.533 500.132 282.533 499.804 282.151C499.461 281.769 496.081 281.003 496.081 281.003C496.081 281.003 495.635 280.364 496.651 279.98C497.661 279.598 497.441 279.598 497.322 279.089C497.212 278.569 495.519 278.569 495.076 278.707C494.626 278.826 493.493 279.089 493.044 278.569C492.598 278.068 491.246 276.774 490.799 277.545C490.346 278.314 490.573 279.34 490.12 279.214C489.673 279.089 486.627 279.468 486.627 279.089C486.627 278.707 485.84 277.678 485.501 277.545C485.165 277.421 485.278 277.039 484.717 276.774C484.152 276.532 483.029 276.906 483.029 276.906L481.906 277.039L480.553 278.826C480.553 278.826 483.704 279.214 484.042 279.723C484.378 280.237 486.068 281.767 486.068 281.767C486.068 281.767 488.314 282.406 488.881 282.533C489.444 282.664 492.034 282.788 492.37 282.918ZM488.66 211.169C488.311 210.916 487.418 210.916 487.418 210.916L486.291 211.425L485.729 211.169L484.487 213.091C484.487 213.091 484.826 215.262 485.164 215.262C485.501 215.262 486.739 215.262 486.739 215.262L487.982 214.241L488.66 212.325C488.66 212.325 488.99 211.426 488.66 211.169ZM506.888 206.054L507.564 204.516C507.564 204.516 507.903 202.982 508.012 202.599C508.127 202.209 508.572 201.061 508.242 200.422C507.903 199.784 508.127 198.891 507.903 198.379C507.676 197.871 507.564 197.101 507.564 197.101L506.438 197.61C505.989 198.12 505.315 200.422 505.315 200.422C505.315 200.422 504.865 202.733 505.201 203.232C505.537 203.754 506.438 205.155 506.438 205.155L506.888 206.054ZM521.067 244.548C522.08 244.935 522.419 244.684 522.304 244.159C522.193 243.649 521.854 240.968 521.63 239.948C521.404 238.926 522.979 238.154 521.294 236.624C519.608 235.082 519.721 235.219 519.608 235.082C519.494 234.954 519.494 233.678 519.494 233.678C519.494 233.678 519.83 232.401 519.608 232.019C519.385 231.637 519.157 230.868 518.931 230.486C518.705 230.101 518.705 229.975 518.029 229.975C517.355 229.975 517.355 229.078 516.906 229.202C516.459 229.33 515.33 230.351 516.116 228.826C516.906 227.282 516.458 227.028 516.458 226.771C516.458 226.517 515.888 226.135 515.329 226.008C514.769 225.877 514.315 225.111 513.529 225.366C512.742 225.63 512.406 224.987 511.954 224.987C511.505 224.987 511.28 224.344 511.17 223.583C511.054 222.814 511.28 221.277 511.28 220.897C511.28 220.508 511.954 219.359 511.954 219.359C511.954 219.359 512.18 218.842 511.954 217.951C511.731 217.058 511.28 215.522 511.28 214.884C511.28 214.245 510.037 213.605 510.037 213.605L508.572 214.244L508.012 219.872C508.012 219.872 507.001 220.251 507.117 220.762C507.222 221.277 507.222 223.708 507.789 224.218C508.348 224.724 509.254 225.366 509.254 225.366C509.474 226.008 508.921 227.281 508.921 227.281C508.921 227.281 510.264 229.08 510.384 229.593C510.492 230.101 511.171 229.842 511.171 229.842C511.171 229.842 510.835 226.39 511.505 227.026C512.181 227.668 513.98 227.548 514.09 228.309C514.207 229.078 515.443 229.842 515.662 230.614C515.888 231.382 517.355 231.639 517.247 232.271C517.132 232.913 516.229 232.913 515.662 233.04C515.106 233.169 513.303 231.639 513.303 231.639C513.303 231.639 512.854 231.51 512.744 232.273C512.633 233.042 512.967 234.957 513.417 235.596C513.864 236.24 514.317 235.596 514.545 235.978C514.771 236.368 514.545 237.263 514.884 237.776C515.216 238.287 516.117 238.412 516.459 238.155C516.795 237.905 517.921 237.261 517.921 237.261C517.921 237.261 517.803 235.728 517.356 235.466C516.907 235.212 516.23 234.443 516.572 234.066C516.905 233.679 517.579 232.913 517.921 233.039C518.252 233.167 519.049 234.83 518.931 235.212C518.823 235.594 518.931 235.728 519.385 237.129C519.83 238.545 520.059 238.287 519.494 238.545C518.931 238.794 518.371 239.568 518.029 239.822C517.954 239.881 517.942 239.918 517.954 239.942C517.872 239.911 517.656 239.867 517.132 239.822C515.662 239.693 516.003 238.927 515.662 239.693C515.33 240.459 514.988 241.098 514.988 241.098L514.206 241.48C514.206 241.48 513.639 243.524 513.752 244.161L513.862 244.811C513.862 244.811 514.988 242.376 515.329 242.376C515.661 242.376 515.661 243.015 516.116 242.629C516.571 242.247 517.021 242.507 517.021 242.507C517.021 242.507 517.695 242.119 517.579 243.138C517.476 244.161 517.476 244.29 517.803 245.325C518.149 246.341 519.049 246.855 519.385 247.237C519.721 247.619 520.168 247.876 520.395 248.131C520.621 248.385 520.731 246.98 520.621 245.958C520.504 244.935 520.057 244.159 521.067 244.548ZM513.193 260.024C514.439 260.793 515.216 261.18 516.229 261.562C517.247 261.945 518.252 260.793 518.481 261.054C518.704 261.306 519.721 260.154 519.721 260.154C519.721 260.154 520.504 258.875 520.395 258.496C520.282 258.104 520.168 256.956 519.941 257.342C519.723 257.721 517.579 259.132 517.133 259.255C516.686 259.384 515.558 258.875 514.545 258.875C513.53 258.875 511.055 257.977 510.712 258.361C510.386 258.75 509.366 260.278 509.476 260.923C509.592 261.562 509.476 261.946 509.476 262.335C509.476 262.717 509.14 264.505 509.14 263.996L507.566 268.72C507.566 268.72 508.801 272.308 508.693 272.948C508.574 273.584 508.351 277.171 508.693 276.78C509.035 276.392 510.713 276.141 510.713 276.141C510.713 276.141 511.283 273.839 511.173 272.818C511.057 271.796 510.04 268.596 510.939 268.853C511.846 269.11 512.745 270.386 512.745 270.386C512.745 270.386 512.067 271.161 512.293 271.67C512.519 272.179 513.306 272.818 513.196 273.969C513.083 275.12 513.532 275.634 513.532 275.246C513.532 274.864 514.659 275.502 514.772 275.759C514.868 275.989 515.934 274.918 516.099 274.928C516.112 274.546 516.28 272.977 516.006 272.563C515.665 272.052 515.665 271.287 514.885 270.264C514.091 269.23 515.108 268.983 514.319 267.822C513.532 266.679 513.196 267.061 513.532 266.679C513.865 266.292 514.546 266.038 515.108 265.655C515.665 265.269 516.119 264.25 516.119 264.25C516.232 263.868 516.46 263.996 515.559 263.739C514.659 263.483 513.867 263.222 513.306 263.996C512.746 264.759 512.183 264.887 512.183 264.887C512.183 264.887 512.183 264.887 511.733 265.016C511.284 265.144 511.394 264.25 511.057 264.122C510.713 263.996 510.713 263.868 510.494 262.974C510.267 262.076 510.494 260.668 510.836 260.407C511.17 260.154 511.954 259.255 513.193 260.024ZM516.116 274.989C516.128 274.945 516.116 274.929 516.096 274.926C516.09 275.013 516.096 275.063 516.116 274.989ZM560.233 274.989C560.126 274.22 560.007 273.327 559.679 272.69C559.333 272.051 552.015 267.695 551.115 267.313C550.215 266.931 545.5 265.268 545.5 265.268C545.5 265.268 543.241 266.29 543.241 266.677C543.241 267.06 542.113 268.467 541.661 268.983C541.216 269.49 541.326 270.002 540.652 269.877C539.974 269.749 539.868 269.877 539.519 269.492C539.193 269.11 538.85 267.822 538.4 267.445C537.947 267.063 537.05 266.551 537.267 265.528C537.499 264.505 537.83 263.1 537.157 263.1C536.485 263.1 535.475 263.616 535.247 263.223C535.021 262.847 533.675 262.975 533.675 262.975L530.865 263.87L530.516 263.998C530.516 263.998 531.759 266.681 532.552 266.422C533.339 266.17 534.798 268.214 534.798 268.214C534.798 268.214 534.352 269.368 534.575 269.75C534.798 270.132 535.701 272.054 535.701 272.054L537.499 271.926L539.299 272.82L544.142 274.61L545.498 276.394L546.285 280.24C546.285 280.24 544.254 281.77 544.369 282.411C544.48 283.051 546.959 282.287 546.959 282.287L548.982 283.435L551.452 284.84L554.273 284.963L555.955 282.793C555.955 282.793 558.428 280.365 558.428 280.878C558.428 281.39 560.684 282.411 561.023 283.563C561.366 284.715 563.388 286.766 563.388 286.766C563.388 286.766 566.196 287.789 566.537 287.917C566.87 288.036 567.664 288.171 568.455 288.425C569.242 288.68 567.663 286.118 567.663 286.118C567.663 286.118 565.183 284.456 565.073 283.816C564.963 283.175 562.937 281.263 563.05 280.622C563.16 279.983 562.143 279.218 562.6 279.218C563.05 279.218 564.847 278.964 564.624 278.572C564.401 278.196 563.162 275.761 562.6 275.761C562.039 275.756 560.352 275.756 560.233 274.989ZM564.063 318.217C564.063 318.217 562.827 317.583 562.714 317.838C562.602 318.095 562.147 315.407 562.147 315.407L562.373 314.003C562.373 314.003 558.993 309.136 558.89 309.527C558.767 309.909 557.646 305.561 557.646 305.561L557.312 300.83L556.523 298.014L554.5 298.271L554.048 293.663L552.915 289.316L552.358 289.062L551.231 292C551.231 292 550.669 296.097 550.441 297.503C550.215 298.908 550.105 300.958 549.431 302.238C548.755 303.517 547.178 306.581 547.178 306.581C547.178 306.581 545.377 306.581 545.149 306.199C544.926 305.816 542.903 304.662 542.903 304.662L541.66 302.49L539.641 300.703C539.641 300.703 538.279 298.78 538.172 298.908C538.063 299.035 539.192 297.121 539.518 296.863C539.867 296.609 539.971 295.333 539.971 295.333L541.773 293.665C541.773 293.665 542.11 293.024 541.773 292.645C541.434 292.258 541.434 291.618 540.986 291.486C540.534 291.361 537.944 292.774 537.944 292.774L535.808 291.618C535.808 291.618 534.229 290.72 533.898 290.081C533.559 289.446 532.655 289.062 532.432 289.316C532.206 289.573 532.432 290.849 532.432 290.849C532.432 290.849 532.894 291.976 533.056 292.327C532.85 292.128 532.094 292.772 532.094 292.772L529.955 293.021L528.602 294.427L527.589 296.606L526.916 298.141C526.916 298.141 527.476 299.163 527.252 299.033C527.026 298.907 523.986 299.931 523.986 299.931C523.986 299.931 523.194 298.014 522.857 297.63C522.521 297.243 521.511 296.606 521.059 296.606C520.612 296.606 519.485 297.759 519.485 297.759L519.04 300.441L517.348 299.931L515.881 302.744L514.432 303.387L513.634 305.303L513.187 303.262L511.499 305.049L510.932 307.984C510.932 307.984 508.793 310.291 508.567 310.801C508.344 311.309 503.61 313.237 503.61 313.237L500.58 314.385C500.58 314.385 499.005 314.767 498.665 314.767C498.329 314.767 495.398 317.201 495.398 317.201L494.393 318.348L494.054 317.326L492.815 318.859V322.059L491.576 323.972L492.253 326.912L491.24 327.3L490.34 328.073L491.354 330.375L491.691 334.586C491.691 334.586 492.252 335.87 492.141 336.641C492.03 337.4 491.576 338.171 491.576 338.681C491.576 339.192 491.915 341.109 491.915 341.619C491.915 342.133 490.898 345.466 490.898 345.466L489.666 347.765L488.656 347.893C488.656 347.893 488.874 350.326 489.214 350.326C489.55 350.326 490.568 350.831 491.463 351.223C492.367 351.597 493.828 350.966 494.167 350.833C494.504 350.704 496.983 349.171 496.983 349.171C496.983 349.171 498.445 348.023 498.893 348.149C499.342 348.277 501.375 347.895 501.706 348.149C502.045 348.405 504.633 348.277 504.633 348.277L506.205 346.362L510.486 344.185L512.628 343.928L517.797 342.268L522.188 342.777C522.188 342.777 525.906 345.851 525.906 345.594C525.906 345.341 526.693 347.259 526.693 347.259L526.47 349.683C526.47 349.683 527.705 350.835 527.815 350.452C527.931 350.067 529.171 348.534 529.51 348.15C529.839 347.768 530.862 347.259 531.65 346.62C532.433 345.978 532.656 345.594 532.656 345.594C532.656 345.594 531.872 348.15 531.53 348.15C531.194 348.15 530.513 348.916 530.177 349.43C529.841 349.937 529.284 350.329 529.284 350.586C529.284 350.835 529.958 350.835 530.287 350.586C530.63 350.329 531.194 349.555 531.65 349.298C532.095 349.044 532.327 349.173 532.207 349.812C532.097 350.451 532.097 351.085 531.65 351.342C531.194 351.599 530.63 351.981 529.841 352.498C529.061 353.012 528.496 352.621 528.155 353.012C527.816 353.397 528.378 353.784 528.604 354.034C528.831 354.291 529.398 355.062 529.841 354.166C530.287 353.268 530.864 352.621 531.194 352.373C531.53 352.122 532.207 351.342 532.207 351.982C532.207 352.623 532.55 353.27 532.656 353.785C532.774 354.291 531.872 355.314 531.98 355.567C532.095 355.824 533.226 358.639 533.226 358.639C533.226 358.639 533.9 359.655 534.682 359.655C535.472 359.655 537.154 360.3 537.496 360.434C537.827 360.554 539.412 360.433 539.64 359.918C539.866 359.404 541.212 358.382 541.102 358.764C540.986 359.149 541.212 359.918 541.548 360.3C541.884 360.682 542.448 361.713 542.448 361.713L546.614 357.996C546.614 357.996 549.763 357.227 549.875 357.614C549.991 357.996 552.011 355.062 552.011 355.062L558.425 346.11L560.911 344.186L562.708 341.244L565.181 336.121L566.533 330.38L567.547 326.029L565.07 321.802L564.063 318.217ZM539.074 365.927C539.074 365.927 537.502 364.776 537.27 364.394V364.009L536.15 367.969L535.14 372.197C535.14 372.197 537.16 372.453 537.386 372.579C537.612 372.702 540.992 370.407 541.107 369.893C541.218 369.379 543.469 365.16 543.469 365.16C543.469 365.16 539.871 366.054 539.074 365.927ZM600.08 358.512L598.952 357.224C598.952 357.224 599.07 355.437 598.726 355.437C598.394 355.437 597.826 355.566 597.826 355.566L598.393 351.083L596.357 349.682L595.914 356.588L594.447 360.434L591.528 361.713C591.528 361.713 592.765 363.115 593.214 363.115C593.66 363.115 592.875 364.649 592.875 364.649L590.962 366.57C590.962 366.57 590.291 366.183 590.291 365.16C590.291 364.134 588.485 366.183 588.485 366.183L587.249 365.285L583.87 368.605L579.257 371.298L568.455 378.848L569.915 379.742C569.915 379.742 571.265 380.381 571.378 380.64C571.487 380.89 574.753 378.975 574.753 378.975L578.47 375.9L580.265 374.113C580.265 374.113 583.535 373.091 583.419 373.603C583.312 374.113 584.432 371.174 584.432 371.174L587.584 369.255L589.5 367.085L591.072 367.587L593.324 366.693L597.151 363.882L597.825 361.575L599.068 361.711L601.425 359.788L603 356.719L600.08 358.512ZM146.502 78.0253C147.402 78.401 147.963 78.5342 149.88 78.6627C151.794 78.7847 152.02 78.5342 152.918 78.9147C153.811 79.2936 154.602 79.947 154.943 79.0383C155.279 78.1489 155.73 78.1489 156.066 77.6352C156.402 77.1247 156.066 76.6125 156.627 76.3573C157.189 76.1036 158.205 77.3831 158.205 77.3831C158.205 77.3831 156.965 78.279 157.527 78.401C158.088 78.5342 159.664 78.9147 160.457 79.0383C161.245 79.1716 160.57 79.422 161.921 79.5633C163.268 79.6837 163.832 79.4221 165.517 79.4221C167.207 79.4221 168.226 78.5342 168.787 78.7847C169.347 79.0384 171.259 79.0383 171.82 78.9147C172.382 78.7847 173.74 77.3831 173.173 77.3831C172.607 77.3831 170.471 76.7394 169.572 76.6141C168.673 76.4873 165.852 76.3589 165.185 76.741C164.504 77.1263 163.718 77.3847 163.268 77.1263C162.819 76.871 165.185 74.8273 166.758 75.0809C168.336 75.3362 170.697 74.8273 171.483 74.9541C172.27 75.0809 174.19 75.4646 174.19 75.4646C174.19 75.4646 174.635 75.2094 174.747 74.8273C174.861 74.4436 174.974 74.0599 174.974 74.0599L176.102 75.2094C176.102 75.2094 183.526 71.7593 183.868 71.1155C184.205 70.4701 188.925 68.8117 189.61 68.9449C190.284 69.067 194.894 66.768 195.688 67.1501C196.465 67.5338 200.634 66.0054 200.634 66.0054C200.634 66.0054 203.677 65.2348 204.353 65.2348C205.029 65.2348 205.364 64.3421 204.353 64.469C203.337 64.5958 194.893 64.5958 192.873 64.469C190.841 64.3421 185.892 64.4642 185.105 64.5958C184.317 64.7242 179.81 66.1306 177.9 66.0054C175.984 65.8753 169.798 66.8948 169.462 66.768C169.12 66.6395 166.65 66.5127 166.876 66.5127C167.095 66.5127 163.606 69.7107 163.044 68.8117C162.483 67.9175 163.044 67.2785 162.483 67.9175C161.922 68.5564 162.032 71.5008 162.032 71.5008C162.706 72.0145 164.17 73.803 165.185 73.0372C166.193 72.2682 166.758 72.6535 167.095 72.7771C167.429 72.9072 165.523 74.5704 164.393 74.5704C163.268 74.5704 159.664 76.1052 159.664 76.1052C159.664 76.1052 158.088 74.442 157.75 74.3151C157.414 74.1867 155.504 74.0599 155.166 74.0599C154.83 74.0599 154.378 73.6778 154.266 74.8273C154.155 75.9768 154.378 77.7652 153.255 77.51C152.127 77.2531 151.793 77.7636 151.227 77.3847C150.665 76.9994 152.019 75.0809 150.435 74.9541C148.86 74.8273 147.961 73.5493 147.061 75.5915C146.16 77.6352 145.605 77.6352 146.502 78.0253ZM105.761 85.9482C105.419 86.5936 108.681 86.8472 108.904 86.3383C109.14 85.8213 111.162 86.205 111.61 85.4424C112.059 84.6734 114.307 83.137 114.644 83.3923C114.982 83.6508 113.97 84.9271 113.633 85.0571C113.295 85.184 114.764 85.3092 113.295 86.5952C111.836 87.8715 112.173 89.0258 112.173 89.0258C112.173 89.0258 110.936 89.6632 111.836 89.92C112.736 90.1769 114.422 91.0695 114.422 91.0695C114.422 91.0695 114.534 91.9637 114.534 92.2206C114.534 92.4759 115.101 93.2433 116.332 92.3491C117.578 91.4532 120.051 90.4338 120.388 90.8159C120.725 91.198 121.516 90.6874 122.645 90.559C123.765 90.4338 124.669 90.0485 124.669 90.0485L126.13 90.3053C126.807 90.6874 127.372 89.7948 128.502 90.559C129.621 91.3264 131.193 91.3264 131.193 91.3264C131.193 91.3264 132.773 89.9216 133.107 89.7948C133.447 89.6664 134.12 89.5395 133.783 88.6437C133.447 87.7463 132.209 86.3415 132.547 86.0782C132.883 85.8245 133.67 85.5677 133.558 83.1402C133.447 80.7128 133.783 81.0997 133.22 81.225C132.66 81.3534 131.306 82.1208 131.306 82.1208L130.86 81.9924C130.637 82.7582 129.621 83.2703 129.389 84.0377C129.166 84.8035 128.502 85.1872 128.502 84.5482C128.502 83.9093 127.711 83.7792 127.591 83.2687C127.486 82.7565 126.468 82.8866 125.907 83.0134C125.343 83.1402 123.765 81.8623 123.201 82.3745C122.645 82.8866 122.075 82.1208 121.626 80.9697C121.181 79.8202 120.615 78.9195 119.939 79.0432C119.264 79.1764 115.101 79.0432 115.101 79.0432L112.624 79.2984C112.624 79.2984 111.276 79.6886 111.276 80.4592C111.276 81.2266 111.05 81.7387 110.376 81.9924C109.697 82.2476 104.746 84.293 104.746 84.293C104.746 84.293 106.098 85.3076 105.761 85.9482ZM141.099 82.8834L139.862 82.6265C139.862 82.6265 139.75 81.6038 139.414 81.6038C139.065 81.6038 138.061 83.0102 138.061 83.0102C138.061 83.0102 139.527 83.6492 139.752 84.1613C139.976 84.6734 140.537 85.3092 140.537 85.6977C140.537 86.075 144.25 84.4166 144.25 84.4166L146.281 83.2655C146.281 83.2655 146.386 83.5207 146.506 82.8834C146.619 82.2444 146.281 81.7339 146.506 81.6038C146.728 81.477 147.629 79.817 146.728 80.0723C145.826 80.3227 143.911 80.0723 143.012 80.4543C142.112 80.838 140.991 79.947 141.102 80.9649C141.211 81.9875 141.099 82.8834 141.099 82.8834ZM123.09 76.9978C123.09 76.9978 123.539 79.1732 124.443 78.5358C125.342 77.8905 127.927 80.0739 127.927 80.3227C127.927 80.586 128.825 80.456 128.825 80.456L132.77 78.9163L134.971 78.5358C134.971 78.5358 137.048 78.4026 137.382 78.6643C137.716 78.9163 139.413 78.0269 139.413 78.0269L140.085 76.741L138.62 76.2304L138.962 74.9525C138.962 74.9525 138.508 74.1851 137.5 75.0793C136.48 75.9752 133.67 77.762 133.893 77.3831C134.119 76.9978 132.771 77.5084 132.208 76.7394C131.641 75.9752 130.857 75.8451 130.857 75.8451C130.857 75.8451 129.275 75.2078 128.718 75.463C128.153 75.7183 129.73 74.1851 129.73 74.1851C129.73 74.1851 130.067 72.7771 129.386 72.9072C128.718 73.0372 123.2 74.442 123.2 74.442C123.2 74.442 120.836 75.9752 120.388 75.5899C119.939 75.2078 118.252 75.8451 118.252 75.8451L119.377 76.6125C119.713 76.2288 123.09 76.9978 123.09 76.9978ZM148.189 71.7561C148.525 71.8797 151.229 72.7755 151.566 72.9056C151.903 73.0356 152.92 73.2893 153.362 73.1624C153.811 73.0356 155.614 72.0145 154.943 71.6292C154.266 71.2471 152.127 70.7254 151.677 70.4669C151.227 70.2132 149.536 70.0928 149.536 70.0928L148.523 70.3417C148.302 70.7254 147.852 71.6308 148.189 71.7561ZM137.382 73.9298C137.84 73.6762 139.413 72.9072 139.413 72.9072L140.756 71.6308L141.211 70.9839C141.211 70.9839 140.199 69.9676 139.749 70.3433C139.3 70.727 136.929 71.8813 136.929 71.8813L136.817 72.7771L134.971 73.6762C134.971 73.6762 136.929 74.1851 137.382 73.9298ZM157.646 73.5477C158.089 73.6762 159.441 73.6762 159.554 73.2909C159.666 72.9072 159.443 70.2148 159.443 70.2148C159.443 70.2148 158.988 69.4539 158.428 69.5807C157.866 69.7075 156.068 70.7254 156.068 70.7254C155.953 71.1139 157.191 73.4193 157.646 73.5477ZM129.22 209.85C129.142 209.565 127.872 209.095 127.198 209.095C126.523 209.095 124.073 206.401 123.909 205.825C123.734 205.248 118.252 203.718 118.252 203.718C118.252 203.718 112.258 203.333 112.258 203.145C112.258 202.945 109.386 205.733 109.386 205.733V206.019C109.386 206.019 109.633 207.36 109.729 207.649C109.808 207.934 111.668 206.111 111.836 205.346C112.004 204.582 113.353 204.385 113.689 204.192C114.033 204.006 114.195 204.967 114.534 204.967C114.876 204.967 116.395 205.539 116.395 205.539L119.433 206.69L120.615 207.934C120.615 207.934 121.119 210.997 121.119 211.388C121.119 211.775 123.399 211.574 123.399 211.574L127.872 211.105C127.87 211.103 129.31 210.139 129.22 209.85ZM129.057 216.279C129.474 216.47 130.148 216.185 130.49 216.185C130.832 216.185 131.928 215.897 131.928 215.897C131.928 215.897 132.264 216.761 132.264 217.05C132.264 217.333 134.034 216.95 134.034 216.661C134.034 216.372 134.457 215.608 134.457 215.608L136.563 215.13C136.563 215.13 139.438 215.226 139.689 215.226C139.944 215.226 140.113 214.651 139.602 213.597C139.1 212.539 137.659 212.341 137.322 211.572C136.984 210.811 135.383 211.298 134.96 211.572C134.539 211.863 132.179 210.911 131.5 210.911C130.83 210.911 131.5 211.773 131.5 211.773L131.245 214.554H128.462L128.376 214.839C128.376 214.839 127.615 215.128 127.615 215.705C127.618 216.279 128.63 216.088 129.057 216.279Z" fill="#5C8D96" fill-opacity="0.2"/>
</svg>
