<svg width="24" height="25" viewBox="0 0 24 25" fill="none" xmlns="http://www.w3.org/2000/svg">
<mask id="mask0_0_20" style="mask-type:alpha" maskUnits="userSpaceOnUse" x="0" y="0" width="24" height="25">
<rect y="0.5" width="24" height="24" fill="#D9D9D9"/>
</mask>
<g mask="url(#mask0_0_20)">
<path d="M4 21.5C3.45 21.5 2.97917 21.3042 2.5875 20.9125C2.19583 20.5208 2 20.05 2 19.5V8.5C2 7.95 2.19583 7.47917 2.5875 7.0875C2.97917 6.69583 3.45 6.5 4 6.5H8V4.5C8 3.95 8.19583 3.47917 8.5875 3.0875C8.97917 2.69583 9.45 2.5 10 2.5H14C14.55 2.5 15.0208 2.69583 15.4125 3.0875C15.8042 3.47917 16 3.95 16 4.5V6.5H20C20.55 6.5 21.0208 6.69583 21.4125 7.0875C21.8042 7.47917 22 7.95 22 8.5V19.5C22 20.05 21.8042 20.5208 21.4125 20.9125C21.0208 21.3042 20.55 21.5 20 21.5H4ZM10 6.5H14V4.5H10V6.5ZM20 15.5H15V16.5C15 16.7833 14.9042 17.0208 14.7125 17.2125C14.5208 17.4042 14.2833 17.5 14 17.5H10C9.71667 17.5 9.47917 17.4042 9.2875 17.2125C9.09583 17.0208 9 16.7833 9 16.5V15.5H4V19.5H20V15.5ZM11 15.5H13V13.5H11V15.5ZM4 13.5H9V12.5C9 12.2167 9.09583 11.9792 9.2875 11.7875C9.47917 11.5958 9.71667 11.5 10 11.5H14C14.2833 11.5 14.5208 11.5958 14.7125 11.7875C14.9042 11.9792 15 12.2167 15 12.5V13.5H20V8.5H4V13.5Z" fill="#5C8D96"/>
</g>
</svg>
