<svg width="20" height="16" viewBox="0 0 20 16" fill="none" xmlns="http://www.w3.org/2000/svg">
<g opacity="0.3">
<path d="M9.75114 15.8121C9.75114 15.9158 11.6967 15.9997 14.1002 15.9997C16.499 15.9997 18.4493 15.9158 18.4493 15.8121C18.4493 15.7084 16.5038 15.6245 14.1002 15.6245C11.6967 15.6245 9.75114 15.7084 9.75114 15.8121Z" fill="black"/>
</g>
<path d="M10.6502 13.1397C13.3356 12.5523 15.0571 9.8002 14.4952 6.99274C13.9333 4.18528 11.3009 2.38558 8.61549 2.973C5.93009 3.56042 4.20864 6.31252 4.77052 9.11998C5.3324 11.9274 7.96484 13.7271 10.6502 13.1397Z" fill="#45BBC6"/>
<mask id="mask0_3_9" style="mask-type:luminance" maskUnits="userSpaceOnUse" x="4" y="3" width="11" height="11">
<path d="M10.188 12.9672C12.7922 12.6334 14.6444 10.1558 14.3251 7.43321C14.0058 4.71065 11.6359 2.77419 9.03172 3.108C6.42754 3.4418 4.57527 5.91947 4.89456 8.64202C5.21385 11.3646 7.58379 13.301 10.188 12.9672Z" fill="white"/>
</mask>
<g mask="url(#mask0_3_9)">
<path d="M19.2567 6.18568C19.3134 6.22024 19.3842 6.24492 19.4267 6.28935C19.5495 6.41771 19.6628 6.551 19.7762 6.68923C19.8281 6.74847 19.8706 6.75834 19.9178 6.69416C19.9887 6.59049 20.0548 6.47695 20.1351 6.37821C20.2862 6.19555 20.2814 5.93884 20.0926 5.79568C19.9226 5.66732 19.7478 5.54884 19.5778 5.43036C19.5165 5.39086 19.4787 5.35137 19.5778 5.31187C19.6062 5.302 19.6345 5.27732 19.6676 5.27238C19.8942 5.25263 20.1209 5.22795 20.3476 5.21808C20.5034 5.2082 20.645 5.16871 20.73 5.03542C20.8434 4.86757 20.9331 4.68491 21.0228 4.50225C21.0653 4.40845 21.0039 4.27022 20.9095 4.23566C20.8245 4.20604 20.7348 4.17642 20.645 4.17642C20.3853 4.16655 20.1303 4.17149 19.8706 4.16655C19.7478 4.16161 19.6251 4.13693 19.4976 4.13693C19.2804 4.13693 19.0584 4.16161 18.8412 4.16161C18.5815 4.16161 18.3218 4.15668 18.0621 4.13199C17.8732 4.11225 17.6937 4.04807 17.5048 4.02338C17.2121 3.97895 16.9146 3.98883 16.636 3.86541C16.5699 3.83579 16.4849 3.8111 16.4235 3.83579C16.2346 3.91478 16.041 3.9987 15.8663 4.11225C15.5641 4.30971 15.2477 4.43807 14.8841 4.39858C14.7141 4.37883 14.5488 4.36402 14.3788 4.33934C14.1994 4.30972 14.0247 4.26035 13.8452 4.23566C13.5099 4.19123 13.2313 4.35908 12.9575 4.53187C12.8394 4.60592 12.8347 4.68491 12.9008 4.81326C12.9575 4.91693 13.0141 5.01567 13.0661 5.11934C13.1322 5.2477 13.1841 5.25757 13.3116 5.19833C13.4533 5.13415 13.5949 5.07985 13.7413 5.02554C13.8358 4.99099 13.8877 5.0601 13.9066 5.14403C13.9444 5.34643 13.8263 5.48466 13.628 5.48466C13.2313 5.48466 12.8347 5.47972 12.4427 5.47972C12.3814 5.47972 12.3152 5.49947 12.2586 5.52416C12.1783 5.55871 12.1028 5.60808 12.0178 5.64264C11.9233 5.67719 11.8525 5.72656 11.8619 5.84011C11.8761 5.95365 11.8903 6.0672 11.9186 6.18074C11.9894 6.46707 12.1783 6.58062 12.4333 6.46707C12.6694 6.3634 12.8961 6.23505 13.1322 6.12644C13.2077 6.09188 13.3069 6.05239 13.3683 6.08201C13.5713 6.17087 13.7838 6.22024 14.001 6.2153C14.1238 6.2153 14.2513 6.21036 14.3741 6.2153C14.5346 6.22517 14.596 6.35353 14.5063 6.49176C14.478 6.53125 14.4449 6.56581 14.4071 6.60037C14.1899 6.81758 13.9538 7.00024 13.628 6.941C13.4674 6.91138 13.3069 6.87682 13.1511 6.82746C12.8488 6.72378 12.5372 6.65467 12.2161 6.68429C12.0366 6.6991 11.8903 6.7929 11.7722 6.92619C11.64 7.07923 11.5314 7.25202 11.4039 7.40506C11.0733 7.79012 11.0922 7.9086 11.4228 8.2443C11.6778 8.50595 11.9705 8.71823 12.3341 8.77747C12.5277 8.81203 12.7261 8.8219 12.9244 8.83671C13 8.84165 13.0377 8.8614 13.0236 8.95519C13 9.11317 12.9716 9.27115 12.9716 9.42912C12.9716 9.69077 12.9952 9.95242 13.0094 10.219C13.0236 10.4313 13.118 10.5991 13.2597 10.7522C13.3777 10.8756 13.4863 11.0138 13.5949 11.1471C13.6469 11.2113 13.6894 11.2804 13.7413 11.3446C13.7933 11.4088 13.8641 11.4186 13.9208 11.3594C14.0388 11.231 14.1852 11.1175 14.256 10.9645C14.4449 10.5547 14.6149 10.1351 14.7613 9.71052C14.8841 9.35507 15.0588 9.06874 15.3799 8.87621C15.5404 8.78241 15.6868 8.64912 15.8238 8.52076C15.9371 8.41709 15.9182 8.36279 15.786 8.29861C15.7388 8.27886 15.6821 8.26405 15.6396 8.23937C15.2288 7.99747 14.8888 7.67164 14.5913 7.29645C14.5441 7.23721 14.5299 7.15328 14.5016 7.07923C14.6574 7.02493 14.7141 7.12366 14.7519 7.20759C14.936 7.57291 15.2335 7.77038 15.5971 7.88392C15.7057 7.91848 15.8143 7.89873 15.8946 7.79506C16.0315 7.61734 16.0268 7.54822 15.8899 7.37544C15.7577 7.20759 15.6443 7.02493 15.5216 6.85214C15.5216 6.85214 15.5263 6.84227 15.531 6.82252C15.6491 6.86695 15.7718 6.90644 15.8899 6.95581C16.0977 7.04961 16.3243 7.1286 16.4707 7.32113C16.6265 7.52847 16.7824 7.73582 16.9335 7.9481C16.9949 8.03696 17.0421 8.14063 17.1129 8.21468C17.1507 8.25418 17.2357 8.27392 17.2924 8.25911C17.3396 8.2443 17.401 8.18013 17.4104 8.12582C17.4435 7.99747 17.4529 7.86417 17.4671 7.73088C17.5048 7.36063 17.7268 7.24708 18.0243 7.44455C18.1329 7.5186 18.2226 7.6124 18.3218 7.70126C18.4823 7.84443 18.6287 8.00734 18.8081 8.12088C19.0584 8.27886 19.1056 8.25418 19.2662 8.05671C19.3937 7.89873 19.3984 7.8 19.2945 7.63708C19.2567 7.58278 19.2237 7.52847 19.1859 7.47417C19.0726 7.29151 19.0348 7.09404 19.0773 6.8867C19.134 6.65961 19.1906 6.44733 19.2567 6.18568Z" fill="#CCE4C4"/>
<path d="M6.67232 7.32139C6.93204 7.30165 7.17759 7.2819 7.42786 7.26215C7.63091 7.24734 7.78674 7.15354 7.89063 6.96101C7.94257 6.86228 7.99924 6.76354 8.07007 6.67962C8.31562 6.37354 8.61311 6.17607 9.01449 6.21063C9.22698 6.22544 9.38754 6.13164 9.49614 5.94898C9.56225 5.83543 9.62836 5.71695 9.67086 5.59353C9.76058 5.3072 9.69447 5.15416 9.43003 5.00112C9.37809 4.9715 9.32143 4.92707 9.26476 4.92707C9.07115 4.9172 8.87283 4.89745 8.68394 4.93201C8.55172 4.95175 8.48089 4.9715 8.40534 4.84808C8.34867 4.75922 8.36756 4.6753 8.43839 4.59631C8.462 4.57162 8.47145 4.49757 8.46673 4.49264C8.32978 4.43833 8.24479 4.32479 8.16451 4.20631C8.15507 4.1915 8.13146 4.17669 8.11257 4.17669C7.80563 4.16681 7.50342 4.12732 7.21537 4.34453C6.94148 4.55188 6.61566 4.57163 6.304 4.38897C6.10095 4.27048 5.92623 4.10757 5.69013 4.04833C5.44458 3.98909 5.22736 3.99403 5.01487 4.15694C4.81654 4.30998 4.61349 4.46302 4.39155 4.57656C4.231 4.66049 4.24044 4.86289 4.35849 4.94682C4.58515 5.11467 4.8307 5.23809 5.11403 5.2134C5.26514 5.20353 5.41624 5.17391 5.57207 5.16897C5.62402 5.16897 5.70901 5.21834 5.71846 5.25783C5.73735 5.32695 5.71846 5.42075 5.69013 5.48986C5.63346 5.62809 5.55791 5.75644 5.48708 5.88974C5.33597 6.17113 5.23208 6.45746 5.27458 6.79316C5.29347 6.93633 5.26986 7.08937 5.28403 7.23747C5.29819 7.41519 5.33597 7.60772 5.49652 7.70152C5.67124 7.80519 5.87429 7.83481 6.08206 7.80026C6.32289 7.76076 6.56844 7.73608 6.79038 7.88418C6.98871 8.01254 7.0737 8.23469 7.17759 8.44203C7.26731 8.61976 7.24842 8.7728 7.08787 8.89622C7.05954 8.91596 7.05009 8.96039 7.02648 8.99001C6.95565 9.07394 6.99343 9.13318 7.06898 9.18255C7.22953 9.29116 7.39009 9.39483 7.54591 9.50344C7.72535 9.62685 7.87174 9.78977 7.9284 10.007C8.03229 10.4266 7.98979 10.8561 7.95202 11.2856C7.9284 11.567 7.9709 11.8286 8.12673 12.0656C8.27784 12.2927 8.49034 12.426 8.72644 12.5247C8.99088 12.6333 9.17504 12.505 9.25059 12.2976C9.32615 12.0854 9.37809 11.8583 9.43476 11.641C9.4867 11.4386 9.55281 11.256 9.71808 11.1178C9.81725 11.0338 9.91641 10.9351 9.9778 10.8215C10.2045 10.397 10.2895 9.928 10.3414 9.45407C10.3508 9.37508 10.3603 9.29116 10.3745 9.21217C10.4122 9.02951 10.3367 8.83204 10.195 8.78267C10.0061 8.71849 9.8078 8.679 9.61892 8.61482C9.45365 8.56052 9.28837 8.50621 9.13726 8.42723C8.9531 8.33343 8.78783 8.17545 8.59894 8.10634C8.26367 7.98785 7.90952 7.92861 7.56953 7.83482C7.35703 7.77557 7.13981 7.70646 6.93676 7.61266C6.80454 7.55836 6.68177 7.47937 6.67232 7.32139Z" fill="#CCE4C4"/>
<path d="M9.73226 3.98396C9.77004 4.05307 9.79837 4.09257 9.81726 4.13206C9.87393 4.24561 9.92587 4.36409 9.97781 4.47763C10.0156 4.5665 10.0109 4.69485 10.1148 4.72941C10.3084 4.79359 10.5114 4.78865 10.6956 4.7146C10.9317 4.6208 11.1583 4.49738 11.385 4.36903C11.5644 4.27029 11.7439 4.16662 11.8478 3.96421C11.8808 3.90004 11.8997 3.85067 11.8289 3.78649C11.5786 3.56927 11.3047 3.39649 10.9883 3.33725C10.6059 3.26319 10.247 3.35206 9.95892 3.64826C9.87393 3.75193 9.81254 3.87042 9.73226 3.98396Z" fill="#CCE4C4"/>
<g opacity="0.5">
<path d="M19.2567 6.18595C19.1906 6.44759 19.134 6.65987 19.0868 6.87709C19.0443 7.08443 19.082 7.28684 19.1954 7.46456C19.2284 7.51887 19.2662 7.57317 19.304 7.62748C19.4126 7.79533 19.4079 7.88912 19.2756 8.0471C19.1151 8.24457 19.0631 8.26925 18.8176 8.11128C18.6382 7.99773 18.4918 7.83482 18.3312 7.69165C18.232 7.60773 18.1423 7.50899 18.0337 7.43494C17.7362 7.23254 17.5096 7.35102 17.4765 7.72127C17.4623 7.85457 17.4529 7.98786 17.4198 8.11621C17.4057 8.17052 17.349 8.2347 17.3018 8.24951C17.2499 8.26432 17.1601 8.24457 17.1224 8.20508C17.0515 8.13103 17.0043 8.02735 16.9429 7.93849C16.7918 7.72621 16.6407 7.51887 16.4801 7.31152C16.329 7.11405 16.1071 7.04 15.8993 6.94621C15.7813 6.8919 15.6632 6.85734 15.5404 6.81291C15.531 6.8376 15.531 6.84253 15.531 6.84253C15.6538 7.02026 15.7671 7.19798 15.8993 7.36583C16.0363 7.53368 16.041 7.60773 15.9041 7.78545C15.8238 7.88912 15.7152 7.90887 15.6066 7.87431C15.243 7.76077 14.9455 7.5633 14.7613 7.19798C14.7188 7.11899 14.6669 7.02026 14.511 7.06962C14.5394 7.14368 14.5535 7.23254 14.6007 7.28684C14.8982 7.66697 15.2382 7.98786 15.6491 8.22976C15.6963 8.25444 15.7482 8.26925 15.7954 8.289C15.9277 8.34824 15.9466 8.40255 15.8332 8.51115C15.6963 8.63951 15.5499 8.7728 15.3893 8.8666C15.0682 9.05913 14.8935 9.34546 14.7707 9.70091C14.6244 10.1255 14.4544 10.5451 14.2655 10.9548C14.1946 11.1079 14.0483 11.2214 13.9302 11.3498C13.8735 11.409 13.8027 11.3992 13.7508 11.335C13.6988 11.2708 13.6563 11.2017 13.6044 11.1375C13.4958 11.0042 13.3872 10.8709 13.2691 10.7426C13.1275 10.5945 13.0283 10.4217 13.0188 10.2094C13.0047 9.94775 12.9811 9.6861 12.9811 9.41952C12.9811 9.26154 13.0094 9.10356 13.033 8.94559C13.0472 8.85179 13.0141 8.83204 12.9338 8.82711C12.7355 8.8123 12.5372 8.80242 12.3436 8.76787C11.98 8.70369 11.6919 8.49634 11.4322 8.2347C11.1017 7.89406 11.0875 7.78052 11.4133 7.39545C11.5455 7.24241 11.6542 7.06962 11.7817 6.91658C11.8997 6.77836 12.0414 6.68949 12.2255 6.67468C12.5466 6.64506 12.8536 6.71418 13.1605 6.81785C13.3163 6.87215 13.4769 6.90177 13.6374 6.9314C13.9633 6.99064 14.1994 6.80798 14.4166 6.59076C14.4496 6.5562 14.4874 6.52164 14.5158 6.48215C14.6055 6.34392 14.5441 6.21557 14.3835 6.20569C14.2608 6.19582 14.1333 6.20076 14.0105 6.20569C13.7885 6.21063 13.5808 6.16126 13.3777 6.0724C13.3163 6.04278 13.2125 6.08227 13.1416 6.11683C12.9055 6.22544 12.6789 6.3538 12.4427 6.45747C12.1878 6.56608 11.9989 6.45747 11.928 6.17114C11.8997 6.06253 11.8808 5.94405 11.8714 5.8305C11.8572 5.71696 11.9328 5.66759 12.0272 5.63303C12.1075 5.60341 12.183 5.54911 12.268 5.51455C12.3247 5.48986 12.3908 5.47012 12.4522 5.47012C12.8488 5.47012 13.2455 5.47505 13.6374 5.47505C13.8405 5.47505 13.9538 5.33189 13.916 5.13442C13.9019 5.05543 13.8452 4.98632 13.7508 5.01594C13.6044 5.0653 13.4627 5.11961 13.3211 5.18872C13.1936 5.24796 13.1416 5.23809 13.0755 5.10973C13.0188 5.00606 12.9669 4.90239 12.9102 4.80366C12.8441 4.68024 12.8488 4.59631 12.9669 4.52226C13.2408 4.35441 13.5147 4.18163 13.8547 4.22606C14.0341 4.25074 14.2088 4.30011 14.3883 4.32973C14.5535 4.35441 14.7235 4.36922 14.8935 4.38897C15.2571 4.42846 15.5735 4.30011 15.8757 4.10264C16.0504 3.98909 16.2393 3.90517 16.4329 3.82618C16.4896 3.8015 16.5793 3.83112 16.6454 3.8558C16.924 3.97922 17.2262 3.96935 17.5143 4.01378C17.6985 4.03846 17.8826 4.10264 18.0715 4.12238C18.3312 4.14707 18.5909 4.15201 18.8506 4.15201C19.0679 4.15201 19.2898 4.13226 19.507 4.12732C19.6298 4.12732 19.7526 4.15694 19.8801 4.15694C20.1398 4.16188 20.3948 4.15694 20.6545 4.16682C20.7442 4.17175 20.8339 4.19644 20.9189 4.22606C21.0134 4.26061 21.0748 4.39884 21.0323 4.49264C20.9473 4.6753 20.8528 4.85796 20.7395 5.02581C20.6545 5.1591 20.5081 5.1986 20.357 5.20847C20.1303 5.21834 19.9037 5.24303 19.677 5.26277C19.6487 5.26771 19.6203 5.28746 19.5873 5.30227C19.4881 5.34176 19.5259 5.38126 19.5873 5.42075C19.762 5.54417 19.9367 5.65771 20.102 5.78607C20.2862 5.92924 20.2956 6.18595 20.1445 6.36861C20.0642 6.46734 20.0028 6.58089 19.9273 6.68456C19.8801 6.74874 19.8376 6.7438 19.7856 6.67962C19.6723 6.54139 19.559 6.4081 19.4362 6.27974C19.3842 6.24519 19.3134 6.2205 19.2567 6.18595Z" fill="#CCE4C4"/>
</g>
<g opacity="0.5">
<path d="M6.67233 7.32125C6.68177 7.47923 6.80455 7.55822 6.91316 7.60758C7.11621 7.70138 7.3287 7.7705 7.54592 7.82974C7.89063 7.92847 8.24007 7.98771 8.57534 8.10126C8.76894 8.16544 8.9295 8.32341 9.11366 8.42215C9.26949 8.50114 9.43476 8.56038 9.59531 8.60974C9.7842 8.67392 9.98253 8.71342 10.1714 8.77759C10.3178 8.82696 10.3886 9.02443 10.3509 9.20709C10.3367 9.28608 10.3272 9.37 10.3178 9.44899C10.2706 9.92785 10.1856 10.3968 9.95419 10.8165C9.89281 10.93 9.79364 11.0288 9.69448 11.1127C9.5292 11.2509 9.46309 11.4336 9.41115 11.636C9.35449 11.8581 9.30254 12.0803 9.22699 12.2926C9.15144 12.4999 8.96727 12.6283 8.70284 12.5196C8.46673 12.4209 8.25424 12.2876 8.10313 12.0605C7.9473 11.8236 7.9048 11.5619 7.92841 11.2805C7.96619 10.851 8.00869 10.4215 7.9048 10.0019C7.85286 9.78469 7.70175 9.62178 7.52231 9.49836C7.36648 9.38975 7.20593 9.28114 7.04538 9.17747C6.96982 9.1281 6.93205 9.06886 7.00288 8.98494C7.02649 8.95532 7.03593 8.91582 7.06426 8.89114C7.22482 8.76772 7.2437 8.61962 7.15398 8.43696C7.0501 8.22961 6.9651 8.00746 6.76677 7.87911C6.54483 7.73594 6.29928 7.76062 6.05846 7.79518C5.85068 7.82974 5.65235 7.79518 5.47291 7.69645C5.31236 7.60265 5.27459 7.41505 5.26042 7.23239C5.25098 7.08429 5.26986 6.93619 5.25098 6.78808C5.20848 6.45238 5.31709 6.16605 5.46347 5.88466C5.5343 5.75137 5.60513 5.62301 5.66652 5.48478C5.69485 5.41567 5.71374 5.32187 5.69485 5.25276C5.68541 5.21326 5.60041 5.16389 5.54847 5.16389C5.39736 5.16389 5.24625 5.19351 5.09042 5.20832C4.80238 5.22807 4.56155 5.10465 4.33489 4.94174C4.21683 4.85782 4.20739 4.65541 4.36794 4.57148C4.58988 4.45794 4.79293 4.3049 4.99126 4.15186C5.20375 3.98401 5.42097 3.98401 5.66652 4.04325C5.90263 4.10249 6.08207 4.26047 6.2804 4.38389C6.59205 4.57148 6.91788 4.5468 7.19176 4.33946C7.47981 4.12224 7.7773 4.16667 8.08896 4.17161C8.10785 4.17161 8.13146 4.18642 8.1409 4.20123C8.22118 4.31971 8.30618 4.43326 8.44312 4.48756C8.44784 4.48756 8.43368 4.56655 8.41479 4.59123C8.34396 4.67022 8.32507 4.75414 8.38173 4.84301C8.45729 4.96642 8.52812 4.94668 8.66034 4.92693C8.84922 4.89731 9.04755 4.91212 9.24116 4.92199C9.29782 4.92693 9.35449 4.96642 9.40643 4.99604C9.67087 5.14908 9.73698 5.29719 9.64726 5.58845C9.60948 5.71187 9.54337 5.83529 9.47254 5.9439C9.36393 6.12656 9.20338 6.22036 8.99088 6.20555C8.5895 6.17593 8.28729 6.36846 8.04646 6.67454C7.98035 6.75846 7.92369 6.8572 7.86702 6.95593C7.76314 7.14353 7.60731 7.23733 7.40426 7.25707C7.18232 7.28176 6.93205 7.30151 6.67233 7.32125Z" fill="#CCE4C4"/>
</g>
<path d="M9.73226 3.98385C9.81254 3.87031 9.87393 3.75183 9.96365 3.65803C10.2517 3.36182 10.6106 3.27296 10.9931 3.34701C11.3094 3.40625 11.5833 3.57904 11.8336 3.79626C11.9044 3.8555 11.8808 3.9098 11.8525 3.97398C11.7533 4.17639 11.5692 4.28006 11.3897 4.37879C11.1678 4.50715 10.9411 4.63057 10.7003 4.72436C10.5161 4.79348 10.3131 4.80335 10.1195 4.73917C10.0109 4.70462 10.0203 4.57626 9.98253 4.4874C9.93059 4.36892 9.87865 4.25537 9.82198 4.14183C9.79837 4.09246 9.77476 4.05297 9.73226 3.98385Z" fill="#CCE4C4"/>
</g>
<path d="M14.2891 12.6823L14.9927 13.2007L15.5735 12.3318L14.9266 11.8579C14.7377 12.1492 14.5205 12.4207 14.2891 12.6823Z" fill="#CCE4C4"/>
<path d="M16.0599 8.0568C16.0599 4.34931 13.1747 1.33789 9.63309 1.33789C8.48561 1.33789 7.40897 1.65878 6.47872 2.21169L6.77621 2.93246C7.61675 2.41904 8.5895 2.1179 9.63309 2.1179C12.7638 2.1179 15.3138 4.78374 15.3138 8.0568C15.3138 11.3299 12.7638 13.9957 9.63309 13.9957C6.50233 13.9957 3.95239 11.3299 3.95239 8.0568C3.95239 7.10895 4.16961 6.22033 4.54738 5.42552L3.83906 5.16881C3.43768 6.04755 3.2063 7.02502 3.2063 8.0568C3.2063 11.7643 6.09151 14.7757 9.63309 14.7757C11.4653 14.7757 13.118 13.9661 14.2891 12.6776C14.5205 12.4209 14.7377 12.1494 14.9313 11.8532C15.6396 10.777 16.0599 9.46871 16.0599 8.0568Z" fill="#626C5F"/>
<g opacity="0.3">
<path d="M7.25315 5.05023C7.15398 4.93669 6.8801 5.03048 6.63927 5.25757C6.39845 5.48467 6.28512 5.76112 6.37956 5.87467C6.47872 5.98821 6.7526 5.89442 6.99343 5.66733C7.23426 5.44023 7.35231 5.16378 7.25315 5.05023Z" fill="#1E4C4C"/>
</g>
<path d="M6.65345 5.39078C6.65345 5.39078 4.44822 5.01559 3.93352 4.41824C3.41881 3.82583 3.4613 2.9076 4.02796 2.36456C4.59461 1.82645 5.47292 1.87088 5.99235 2.46329C6.50706 3.06064 6.65345 5.39078 6.65345 5.39078ZM5.35015 2.92241C5.12821 2.6657 4.74572 2.64595 4.49545 2.87798C4.2499 3.11 4.23101 3.50988 4.45295 3.77153C4.67489 4.02824 5.05738 4.04799 5.30765 3.81596C5.55792 3.579 5.57681 3.17912 5.35015 2.92241Z" fill="#FCC020"/>
<path d="M14.8557 13.4032L18.2273 15.8765L18.3548 15.7481C18.6382 15.4569 18.8648 15.1113 19.0301 14.7312L19.0915 14.5929L15.7199 12.1196L14.8557 13.4032Z" fill="#1A7C7B"/>
<path opacity="0.2" d="M14.6102 8.13562C14.6102 5.22787 12.3578 2.87305 9.57643 2.87305C9.57643 7.76043 9.57643 8.33309 9.57643 13.2501C12.3578 13.2452 14.6102 11.0384 14.6102 8.13562Z" fill="#1E4C4C"/>
<path d="M17.2971 3.97883C17.2971 3.91466 17.2451 3.86035 17.1838 3.86035C17.1224 3.86035 17.0704 3.91466 17.0704 3.97883C17.0704 4.04301 17.1224 4.09731 17.1838 4.09731C17.2499 4.09238 17.2971 4.04301 17.2971 3.97883Z" fill="white"/>
<path d="M8.60368 0.0789879C8.60368 0.0345572 8.57062 0 8.52812 0C8.48562 0 8.45257 0.0345572 8.45257 0.0789879C8.45257 0.123419 8.48562 0.157976 8.52812 0.157976C8.57062 0.157976 8.60368 0.123419 8.60368 0.0789879Z" fill="white"/>
<path d="M0.986909 5.32199C0.986909 5.26275 0.939688 5.21338 0.883023 5.21338C0.826358 5.21338 0.779137 5.26275 0.779137 5.32199C0.779137 5.38123 0.826358 5.4306 0.883023 5.4306C0.939688 5.4306 0.986909 5.38123 0.986909 5.32199Z" fill="white"/>
<path d="M1.81801 7.77538C1.81801 7.72602 1.78024 7.68652 1.73302 7.68652C1.68579 7.68652 1.64802 7.72602 1.64802 7.77538C1.64802 7.82475 1.68579 7.86425 1.73302 7.86425C1.77551 7.86425 1.81801 7.82475 1.81801 7.77538Z" fill="white"/>
<path d="M4.30183 13.813C4.30183 13.7636 4.26406 13.7241 4.21683 13.7241C4.16961 13.7241 4.13184 13.7636 4.13184 13.813C4.13184 13.8624 4.16961 13.9018 4.21683 13.9018C4.26406 13.9018 4.30183 13.8624 4.30183 13.813Z" fill="white"/>
<path d="M0.169996 10.3574C0.169996 10.308 0.132219 10.2686 0.0849979 10.2686C0.0377768 10.2686 0 10.308 0 10.3574C0 10.4068 0.0377768 10.4463 0.0849979 10.4463C0.127497 10.4463 0.169996 10.4068 0.169996 10.3574Z" fill="white"/>
<path d="M17.7221 8.70361C17.7221 8.65424 17.6843 8.61475 17.6371 8.61475C17.5898 8.61475 17.5521 8.65424 17.5521 8.70361C17.5521 8.75298 17.5898 8.79247 17.6371 8.79247C17.6843 8.79247 17.7221 8.75298 17.7221 8.70361Z" fill="white"/>
</svg>
